{"glyphs":{"0":{"ha":854,"x_min":99,"x_max":754,"o":"m 754 307 q 663 76 754 168 q 435 -14 572 -14 l 417 -14 q 189 76 278 -14 q 99 307 99 169 l 99 644 q 190 876 99 785 q 417 967 281 967 l 435 967 q 663 875 569 967 q 754 644 754 786 l 754 307 m 618 656 q 564 789 618 735 q 426 843 510 843 q 289 789 344 843 q 235 656 235 738 l 235 297 q 289 164 235 215 q 426 110 344 110 q 564 164 510 110 q 618 297 618 218 l 618 656 z "},"1":{"ha":854,"x_min":135,"x_max":774,"o":"m 135 860 q 471 953 297 876 l 524 953 l 524 124 l 774 124 l 774 0 l 138 0 l 138 124 l 388 124 l 388 771 l 135 771 l 135 860 z "},"2":{"ha":854,"x_min":97,"x_max":751,"o":"m 97 33 q 147 196 97 121 q 226 279 179 244 l 503 488 q 607 636 594 560 q 611 682 611 660 q 604 730 611 703 q 578 782 597 757 q 432 843 528 843 q 263 757 313 843 q 233 660 233 707 l 233 640 q 235 624 233 632 l 99 624 q 97 638 97 633 l 97 649 q 146 822 97 739 q 300 946 194 907 q 439 967 356 967 q 582 939 522 967 q 678 869 642 911 q 747 688 747 792 q 722 553 747 600 q 578 392 676 468 l 313 189 q 262 148 278 165 q 246 124 246 131 l 751 124 l 751 0 l 97 0 l 97 33 z "},"3":{"ha":854,"x_min":81,"x_max":760,"o":"m 217 265 q 268 149 217 189 q 415 110 319 110 q 567 149 510 110 q 624 269 624 188 q 558 392 624 353 q 410 422 506 422 l 306 422 l 306 547 l 413 547 q 586 631 540 547 q 601 697 601 658 q 586 764 601 736 q 544 810 571 792 q 415 843 497 843 q 253 760 294 843 q 239 696 239 732 l 239 683 l 103 683 l 103 708 q 192 896 103 825 q 415 967 282 967 l 428 967 q 649 897 563 967 q 738 708 738 824 q 694 574 738 624 q 586 494 651 525 l 588 490 q 711 409 663 467 q 760 256 760 351 q 665 61 760 136 q 428 -14 572 -14 l 411 -14 q 167 65 256 -14 q 81 269 81 140 l 81 281 l 217 281 l 217 265 z "},"4":{"ha":854,"x_min":69,"x_max":775,"o":"m 69 360 q 365 967 258 643 l 511 967 q 354 596 464 796 q 199 358 268 439 l 518 358 l 518 635 q 593 825 567 729 l 654 825 l 654 358 l 775 358 l 775 235 l 654 235 l 654 0 l 518 0 l 518 235 l 69 235 l 69 360 z "},"5":{"ha":854,"x_min":99,"x_max":757,"o":"m 264 550 q 444 621 353 621 q 592 594 535 621 q 686 525 649 568 q 757 308 757 442 q 667 76 757 165 q 428 -14 578 -14 q 189 78 281 -14 q 99 297 101 165 l 235 297 q 294 161 238 214 q 428 110 347 110 q 564 161 511 110 q 621 313 621 215 q 569 447 621 394 q 433 504 515 504 q 254 408 314 504 l 132 426 l 171 953 l 707 953 l 707 829 l 285 829 l 264 550 z "},"6":{"ha":854,"x_min":110,"x_max":767,"o":"m 246 508 q 461 600 332 600 q 676 517 588 600 q 767 307 767 432 q 671 69 767 158 q 439 -14 579 -14 q 206 72 299 -14 q 110 310 110 164 l 110 646 q 203 873 110 779 q 431 967 297 967 q 661 883 572 967 q 751 657 751 797 l 615 657 q 565 794 615 744 q 431 843 514 843 q 300 789 354 843 q 246 658 246 735 l 246 508 m 631 293 q 575 426 631 376 q 439 476 519 476 q 303 426 357 476 q 246 293 246 375 q 303 160 246 211 q 439 110 357 110 q 575 160 519 110 q 631 293 631 210 z "},"7":{"ha":854,"x_min":101,"x_max":771,"o":"m 250 0 q 597 829 250 393 l 101 829 l 101 953 l 771 953 l 771 879 q 439 300 528 593 q 406 71 406 186 l 406 39 q 408 0 406 25 l 250 0 z "},"8":{"ha":854,"x_min":93,"x_max":760,"o":"m 599 486 q 715 401 671 453 q 760 257 760 350 q 674 58 760 131 q 426 -14 588 -14 q 186 56 276 -14 q 93 257 93 126 q 138 402 93 349 q 254 486 182 456 l 254 492 q 167 563 189 531 q 125 693 125 622 q 147 813 125 764 q 210 897 169 863 q 426 967 293 967 q 643 897 560 967 q 728 701 728 825 q 650 526 728 586 q 599 492 626 508 l 599 486 m 261 696 q 306 591 261 633 q 426 549 350 549 q 547 591 503 549 q 592 696 592 633 q 547 801 592 758 q 426 843 503 843 q 306 801 350 843 q 261 696 261 758 m 244 336 q 229 267 229 306 q 244 197 229 226 q 286 149 260 168 q 426 110 342 110 q 567 149 511 110 q 624 267 624 190 q 567 386 624 343 q 426 425 513 425 q 244 336 290 425 z "},"9":{"ha":854,"x_min":88,"x_max":744,"o":"m 608 444 q 393 353 522 353 q 178 436 267 353 q 88 646 88 521 q 183 883 88 794 q 415 967 275 967 q 647 881 556 967 q 744 643 744 789 l 744 307 q 651 80 744 174 q 424 -14 557 -14 q 194 69 282 -14 q 103 296 103 156 l 239 296 q 290 159 239 208 q 424 110 340 110 q 554 164 500 110 q 608 294 608 218 l 608 444 m 224 660 q 279 526 224 576 q 415 476 335 476 q 553 526 497 476 q 608 660 608 578 q 553 793 608 742 q 415 843 497 843 q 279 793 335 843 q 224 660 224 743 z "}," ":{"ha":339,"x_min":0,"x_max":0,"o":""},"!":{"ha":374,"x_min":108,"x_max":268,"o":"m 118 154 l 258 154 l 258 0 l 118 0 l 118 154 m 268 953 q 233 242 264 921 l 142 242 q 108 953 110 919 l 268 953 z "},"\"":{"ha":506,"x_min":89,"x_max":417,"o":"m 203 749 l 174 565 l 119 565 l 89 749 l 89 953 l 203 953 l 203 749 m 417 749 q 386 565 397 638 l 332 565 l 303 749 l 303 953 l 417 953 l 417 749 z "},"#":{"ha":893,"x_min":39,"x_max":851,"o":"m 94 675 l 286 675 l 351 967 l 457 967 l 392 675 l 600 675 l 665 967 l 771 967 l 706 675 l 851 675 l 851 569 l 682 569 l 635 354 l 796 354 l 796 249 l 611 249 l 556 0 l 450 0 l 506 249 l 297 249 l 242 0 l 136 0 l 192 249 l 39 249 l 39 354 l 215 354 l 263 569 l 94 569 l 94 675 m 321 354 l 529 354 l 576 569 l 368 569 l 321 354 z "},"$":{"ha":758,"x_min":43,"x_max":714,"o":"m 372 146 q 583 281 583 146 q 545 363 583 335 q 449 410 507 392 q 324 444 390 429 q 199 488 257 460 q 102 563 140 515 q 64 681 64 610 q 85 793 64 750 q 144 865 107 836 q 340 932 217 924 l 325 1056 l 426 1056 l 411 932 q 611 867 535 926 q 692 688 692 804 l 692 671 l 560 671 l 560 690 q 509 783 560 751 q 381 814 458 814 q 249 787 303 814 q 196 701 196 760 q 278 599 196 635 q 360 570 314 582 q 455 545 407 558 q 549 515 503 532 q 633 469 596 497 q 714 300 714 408 q 628 94 714 165 q 411 26 550 32 l 426 -92 l 325 -92 l 339 28 q 67 175 129 42 q 43 290 43 224 l 44 315 l 176 315 l 175 289 q 231 181 175 215 q 372 146 286 146 z "},"%":{"ha":971,"x_min":42,"x_max":929,"o":"m 246 0 l 149 0 l 729 953 l 824 953 l 246 0 m 388 635 q 342 517 388 564 q 219 467 294 467 l 210 467 q 88 517 135 467 q 42 635 42 564 l 42 783 q 88 903 42 854 q 210 951 135 951 l 219 951 q 342 903 294 951 q 388 783 388 854 l 388 635 m 299 793 q 277 851 299 828 q 215 875 256 875 q 153 851 175 875 q 131 793 131 828 l 131 625 q 153 567 131 590 q 215 543 175 543 q 277 567 256 543 q 299 625 299 590 l 299 793 m 929 167 q 883 47 929 96 q 761 -1 836 -1 l 751 -1 q 629 47 676 -1 q 583 167 583 96 l 583 315 q 629 433 583 386 q 751 483 676 483 l 761 483 q 883 433 836 483 q 929 315 929 386 l 929 167 m 840 325 q 819 383 840 360 q 757 407 797 407 q 694 383 717 407 q 672 325 672 360 l 672 157 q 694 99 672 122 q 757 75 717 75 q 819 99 797 75 q 840 157 840 122 l 840 325 z "},"&":{"ha":919,"x_min":81,"x_max":879,"o":"m 197 900 q 218 917 197 900 q 296 950 239 933 q 404 967 353 967 q 501 957 456 967 l 501 831 q 424 843 461 843 q 351 834 385 843 q 292 808 317 825 q 238 699 238 769 q 289 592 238 636 q 425 549 343 549 l 596 549 l 635 747 l 729 747 l 729 549 l 879 549 l 879 425 l 729 425 l 729 0 l 417 0 q 181 64 274 0 q 81 268 81 135 q 256 492 81 439 l 260 494 q 148 573 193 524 q 103 696 103 622 q 128 818 103 769 q 197 900 154 867 m 435 425 q 274 388 331 425 q 217 275 217 350 q 281 158 217 197 q 436 124 339 124 l 593 124 l 593 425 l 435 425 z "},"'":{"ha":292,"x_min":89,"x_max":203,"o":"m 118 565 l 89 749 l 89 953 l 203 953 l 203 749 l 172 565 l 118 565 z "},"(":{"ha":401,"x_min":68,"x_max":361,"o":"m 68 367 q 125 680 68 529 q 289 953 182 831 l 361 953 q 196 524 236 754 q 182 368 182 444 q 196 211 182 290 q 233 57 210 132 q 361 -218 279 -86 l 289 -218 q 125 54 182 -96 q 68 367 68 204 z "},")":{"ha":400,"x_min":40,"x_max":333,"o":"m 113 953 q 276 680 219 831 q 333 368 333 529 q 276 55 333 206 q 113 -218 219 -96 l 40 -218 q 204 211 164 -22 q 218 368 218 290 q 204 524 218 444 q 167 678 190 603 q 40 953 119 825 l 113 953 z "},"*":{"ha":650,"x_min":40,"x_max":611,"o":"m 382 650 l 533 476 l 444 408 l 322 608 l 201 411 l 113 478 l 267 651 l 40 707 l 75 814 l 290 722 l 272 953 l 382 953 l 360 721 l 579 811 l 611 703 l 382 650 z "},"+":{"ha":854,"x_min":71,"x_max":782,"o":"m 483 413 l 782 413 l 782 296 l 483 296 l 483 0 l 368 0 l 368 296 l 71 296 l 71 413 l 368 413 l 368 710 l 483 710 l 483 413 z "},",":{"ha":331,"x_min":96,"x_max":236,"o":"m 115 -172 l 153 0 l 96 0 l 96 154 l 236 154 l 236 36 l 188 -172 l 115 -172 z "},"-":{"ha":543,"x_min":96,"x_max":447,"o":"m 96 443 l 447 443 l 447 307 l 96 307 l 96 443 z "},".":{"ha":332,"x_min":96,"x_max":236,"o":"m 96 154 l 236 154 l 236 0 l 96 0 l 96 154 z "},"/":{"ha":833,"x_min":21,"x_max":813,"o":"m 133 -237 l 21 -237 l 701 953 l 813 953 l 133 -237 z "},":":{"ha":332,"x_min":96,"x_max":236,"o":"m 96 154 l 236 154 l 236 0 l 96 0 l 96 154 m 96 710 l 236 710 l 236 554 l 96 554 l 96 710 z "},";":{"ha":332,"x_min":96,"x_max":236,"o":"m 96 710 l 236 710 l 236 554 l 96 554 l 96 710 m 115 -172 l 153 0 l 96 0 l 96 154 l 236 154 l 236 36 l 188 -172 l 115 -172 z "},"<":{"ha":854,"x_min":61,"x_max":768,"o":"m 61 426 l 768 700 l 768 575 l 172 353 l 768 131 l 768 6 l 61 278 l 61 426 z "},"=":{"ha":854,"x_min":76,"x_max":776,"o":"m 76 442 l 76 558 l 776 558 l 776 442 l 76 442 m 76 147 l 76 263 l 776 263 l 776 147 l 76 147 z "},">":{"ha":854,"x_min":86,"x_max":793,"o":"m 681 353 q 86 575 247 514 l 86 700 l 793 426 l 793 278 l 86 6 l 86 131 q 383 241 235 186 q 681 353 531 296 z "},"?":{"ha":697,"x_min":36,"x_max":642,"o":"m 285 154 l 429 154 l 429 0 l 285 0 l 285 154 m 40 636 q 36 689 36 653 q 51 773 36 724 q 100 865 65 822 q 342 967 185 967 l 350 967 q 583 863 506 967 q 629 774 617 819 q 642 683 642 728 q 626 596 642 638 q 586 524 610 554 q 534 471 563 493 q 482 428 506 449 q 426 325 426 376 l 426 257 l 288 257 l 288 346 q 344 469 288 411 q 396 517 368 494 q 447 564 424 539 q 504 692 504 624 q 468 789 504 747 q 340 843 422 843 q 203 782 247 843 q 174 688 174 742 l 176 636 l 40 636 z "},"@":{"ha":1229,"x_min":53,"x_max":1188,"o":"m 781 349 q 559 331 617 349 q 479 289 501 313 q 457 219 457 265 q 594 128 457 128 q 722 179 669 128 q 781 324 781 235 l 781 349 m 360 506 q 357 549 357 519 q 378 613 357 578 q 435 672 399 647 q 631 724 508 724 l 643 724 q 840 670 776 724 q 904 519 904 617 l 904 179 q 956 126 904 126 q 1092 289 1057 126 q 1106 458 1106 351 q 1071 649 1106 564 q 975 788 1036 733 q 636 892 856 892 q 269 761 400 892 q 135 369 135 626 q 245 -12 135 113 q 589 -136 356 -136 q 733 -119 667 -136 q 818 -92 799 -101 l 818 -175 q 682 -206 753 -200 q 589 -212 611 -212 q 90 106 200 -212 q 53 372 53 214 q 100 644 53 529 q 228 831 147 760 q 638 968 379 968 q 1146 683 1026 968 q 1188 456 1188 583 q 1163 247 1188 326 q 1100 119 1138 168 q 928 31 1028 31 q 797 103 822 31 q 788 151 790 125 l 783 147 q 553 31 707 31 q 353 125 401 31 q 335 228 335 161 q 367 339 335 294 q 458 407 400 383 q 781 444 553 444 l 781 506 q 761 579 781 557 q 628 626 722 626 q 500 581 538 626 q 479 521 479 554 l 479 506 l 360 506 z "},"A":{"ha":906,"x_min":6,"x_max":900,"o":"m 672 207 l 217 207 l 138 0 l 6 0 l 378 953 l 528 953 l 900 0 l 753 0 l 672 207 m 442 789 l 265 331 l 625 331 l 450 789 l 442 789 z "},"B":{"ha":904,"x_min":128,"x_max":822,"o":"m 128 953 l 550 953 q 728 885 654 953 q 800 719 800 817 q 746 563 800 624 q 633 497 706 518 l 633 490 q 803 361 751 471 q 822 260 822 318 q 801 155 822 201 q 744 75 781 108 q 558 0 668 0 l 128 0 l 128 953 m 522 547 q 622 589 579 547 q 664 688 664 628 q 622 788 664 746 q 522 829 581 829 l 264 829 l 264 547 l 522 547 m 536 124 q 642 167 599 124 q 686 274 686 211 q 642 380 686 336 q 536 424 599 424 l 264 424 l 264 124 l 536 124 z "},"C":{"ha":921,"x_min":86,"x_max":846,"o":"m 846 363 q 736 78 846 178 q 478 -14 638 -14 q 197 92 300 -14 q 86 414 86 204 l 86 539 q 197 861 86 747 q 478 967 301 967 q 739 872 640 967 q 846 588 846 772 l 710 588 q 644 783 710 715 q 478 843 585 843 q 242 678 294 843 q 222 539 222 619 l 222 414 q 374 128 222 183 q 475 110 421 110 q 573 124 529 110 q 647 169 617 139 q 715 363 715 238 l 846 363 z "},"D":{"ha":938,"x_min":128,"x_max":853,"o":"m 458 124 q 697 289 642 124 q 717 428 717 346 l 717 525 q 561 811 717 756 q 458 829 514 829 l 264 829 l 264 124 l 458 124 m 128 0 l 128 953 l 458 953 q 736 847 631 953 q 853 525 853 733 l 853 428 q 736 106 853 219 q 458 0 631 0 l 128 0 z "},"E":{"ha":824,"x_min":128,"x_max":763,"o":"m 128 0 l 128 953 l 753 953 l 735 829 l 264 829 l 264 549 l 690 549 l 690 425 l 264 425 l 264 124 l 743 124 l 763 0 l 128 0 z "},"F":{"ha":764,"x_min":128,"x_max":728,"o":"m 710 829 l 264 829 l 264 539 l 653 539 l 653 415 l 264 415 l 264 0 l 128 0 l 128 953 l 728 953 l 710 829 z "},"G":{"ha":940,"x_min":86,"x_max":851,"o":"m 843 178 q 851 0 843 63 l 771 0 q 743 114 754 51 q 478 -14 654 -14 q 197 92 300 -14 q 86 414 86 204 l 86 539 q 197 861 86 747 q 478 967 301 967 q 735 881 636 967 q 843 618 843 785 l 707 618 q 640 792 707 732 q 478 843 582 843 q 242 678 294 843 q 222 539 222 619 l 222 414 q 374 128 222 183 q 478 110 421 110 q 653 169 597 110 q 710 363 710 229 l 710 381 l 440 381 l 440 503 l 843 503 l 843 178 z "},"H":{"ha":963,"x_min":128,"x_max":835,"o":"m 699 0 l 699 425 l 264 425 l 264 0 l 128 0 l 128 953 l 264 953 l 264 549 l 699 549 l 699 953 l 835 953 l 835 0 l 699 0 z "},"I":{"ha":506,"x_min":74,"x_max":432,"o":"m 74 953 l 432 953 l 432 829 l 321 829 l 321 124 l 432 124 l 432 0 l 74 0 l 74 124 l 185 124 l 185 829 l 74 829 l 74 953 z "},"J":{"ha":731,"x_min":40,"x_max":610,"o":"m 40 289 l 176 289 l 176 251 q 219 149 176 189 q 326 110 261 110 q 432 148 390 110 q 474 251 474 186 l 474 953 l 610 953 l 610 260 q 528 56 610 128 q 328 -14 451 -14 l 315 -14 q 61 140 124 -14 q 40 260 40 192 l 40 289 z "},"K":{"ha":865,"x_min":128,"x_max":846,"o":"m 128 953 l 264 953 l 264 457 l 678 953 l 835 953 l 485 532 l 846 0 l 688 0 l 399 428 l 264 286 l 264 0 l 128 0 l 128 953 z "},"L":{"ha":744,"x_min":128,"x_max":721,"o":"m 128 0 l 128 953 l 264 953 l 264 124 l 701 124 l 721 0 l 128 0 z "},"M":{"ha":1303,"x_min":128,"x_max":1175,"o":"m 1039 0 l 1039 793 l 1031 793 l 701 0 l 586 0 l 258 793 l 251 793 l 251 0 l 128 0 l 128 953 l 342 953 l 649 203 l 654 203 l 963 953 l 1175 953 l 1175 0 l 1039 0 z "},"N":{"ha":964,"x_min":128,"x_max":836,"o":"m 721 0 l 256 697 l 251 696 l 251 0 l 128 0 l 128 953 l 247 953 l 708 264 l 713 265 l 713 953 l 836 953 l 836 0 l 721 0 z "},"O":{"ha":958,"x_min":85,"x_max":874,"o":"m 738 539 q 583 825 738 769 q 479 843 535 843 q 375 826 422 843 q 294 772 328 808 q 221 539 221 694 l 221 414 q 375 128 221 183 q 479 110 422 110 q 583 127 535 110 q 664 181 631 144 q 738 414 738 258 l 738 539 m 874 414 q 758 92 874 206 q 479 -14 650 -14 q 200 92 308 -14 q 85 414 85 206 l 85 539 q 200 861 85 747 q 479 967 308 967 q 758 861 650 967 q 874 539 874 747 l 874 414 z "},"P":{"ha":867,"x_min":128,"x_max":824,"o":"m 264 829 l 264 521 l 526 521 q 640 567 592 521 q 688 675 688 611 q 642 783 688 739 q 526 829 593 829 l 264 829 m 264 397 l 264 0 l 128 0 l 128 953 l 539 953 q 740 878 660 953 q 824 675 824 799 q 740 472 824 551 q 539 397 660 397 l 264 397 z "},"Q":{"ha":958,"x_min":85,"x_max":874,"o":"m 858 -156 q 693 -201 776 -201 q 563 -183 608 -201 q 489 -137 518 -165 q 424 -11 438 -87 q 182 110 272 7 q 85 414 85 222 l 85 539 q 200 861 85 747 q 479 967 308 967 q 758 861 650 967 q 874 539 874 747 l 874 414 q 783 119 874 231 q 558 -7 701 17 q 592 -64 568 -46 q 696 -97 636 -97 q 842 -64 758 -97 l 858 -58 l 858 -156 m 738 539 q 583 825 738 769 q 479 843 535 843 q 375 826 422 843 q 294 772 328 808 q 221 539 221 694 l 221 414 q 375 128 221 183 q 479 110 422 110 q 583 127 535 110 q 664 181 631 144 q 738 414 738 258 l 738 539 z "},"R":{"ha":931,"x_min":128,"x_max":875,"o":"m 875 4 q 810 -8 843 -8 q 753 0 782 -8 q 681 82 703 14 q 668 181 668 117 q 652 292 668 244 q 611 369 636 340 q 506 419 568 419 l 264 419 l 264 0 l 128 0 l 128 953 l 533 953 q 799 822 729 953 q 822 729 822 778 q 809 642 822 679 q 772 572 796 604 q 651 492 724 506 l 651 485 q 785 346 743 450 q 804 236 804 297 q 809 142 804 174 q 822 90 814 110 q 875 43 839 56 l 875 4 m 535 543 q 642 583 596 543 q 686 683 686 624 l 686 689 q 645 789 686 749 q 535 829 604 829 l 264 829 l 264 543 l 535 543 z "},"S":{"ha":871,"x_min":72,"x_max":797,"o":"m 210 299 l 208 269 q 270 149 208 188 q 436 110 332 110 q 601 148 540 110 q 661 253 661 186 q 619 351 661 319 q 515 401 578 382 q 378 438 451 421 q 241 485 304 454 q 136 567 178 515 q 94 696 94 618 q 122 822 94 774 q 194 903 149 871 q 436 967 285 967 q 674 904 583 967 q 772 700 772 836 l 772 683 l 636 683 l 636 704 q 581 808 636 772 q 439 843 525 843 q 247 774 293 843 q 231 717 231 750 q 272 632 231 661 q 377 583 314 603 q 514 547 440 564 q 651 499 588 529 q 756 419 714 469 q 797 285 797 368 q 769 144 797 200 q 693 53 742 88 q 435 -14 600 -14 q 101 139 183 -14 q 72 271 72 193 l 74 299 l 210 299 z "},"T":{"ha":803,"x_min":35,"x_max":768,"o":"m 469 829 l 469 0 l 333 0 l 333 829 l 35 829 l 35 953 l 768 953 l 768 829 l 469 829 z "},"U":{"ha":944,"x_min":119,"x_max":825,"o":"m 825 953 l 825 304 q 731 72 825 160 q 481 -14 636 -14 l 463 -14 q 214 72 307 -14 q 119 304 119 158 l 119 953 l 256 953 l 256 307 q 314 167 256 221 q 475 110 376 110 q 631 165 574 110 q 689 307 689 219 l 689 953 l 825 953 z "},"V":{"ha":838,"x_min":7,"x_max":831,"o":"m 429 185 l 699 953 l 831 953 l 492 0 l 346 0 l 7 953 l 153 953 l 421 185 l 429 185 z "},"W":{"ha":1272,"x_min":19,"x_max":1254,"o":"m 632 689 l 431 0 l 292 0 l 19 953 l 165 953 l 367 235 l 375 235 l 578 953 l 710 953 l 911 235 l 919 235 l 1122 953 l 1254 953 l 975 0 l 836 0 l 642 689 l 632 689 z "},"X":{"ha":876,"x_min":13,"x_max":863,"o":"m 435 383 l 164 0 l 13 0 l 360 493 l 44 951 l 208 951 l 442 611 q 533 741 490 679 q 609 849 576 803 q 661 924 642 896 l 681 951 l 832 951 l 806 914 q 668 717 760 847 q 517 501 576 588 l 863 0 l 699 0 l 435 383 z "},"Y":{"ha":794,"x_min":-7,"x_max":800,"o":"m 465 368 l 465 0 l 329 0 l 329 368 l -7 953 l 149 953 l 403 510 l 408 510 l 660 953 l 800 953 l 465 368 z "},"Z":{"ha":828,"x_min":44,"x_max":771,"o":"m 44 0 l 44 53 l 551 829 l 78 829 l 78 953 l 760 953 l 760 900 l 251 124 l 771 124 l 771 0 l 44 0 z "},"[":{"ha":407,"x_min":118,"x_max":353,"o":"m 118 -224 l 118 953 l 353 953 l 353 876 l 231 876 l 231 -147 l 353 -147 l 353 -224 l 118 -224 z "},"\\":{"ha":833,"x_min":21,"x_max":813,"o":"m 21 953 l 132 953 l 813 -237 l 700 -237 l 21 953 z "},"]":{"ha":407,"x_min":54,"x_max":289,"o":"m 54 -224 l 54 -147 l 176 -147 l 176 876 l 54 876 l 54 953 l 289 953 l 289 -224 l 54 -224 z "},"^":{"ha":828,"x_min":68,"x_max":758,"o":"m 414 585 l 185 0 l 68 0 l 342 710 l 485 710 l 758 0 l 642 0 q 414 585 574 171 z "},"_":{"ha":964,"x_min":135,"x_max":829,"o":"m 135 -172 l 135 -89 l 829 -89 l 829 -172 l 135 -172 z "},"`":{"ha":463,"x_min":94,"x_max":351,"o":"m 254 799 l 94 996 l 96 1000 l 219 1000 l 351 799 l 254 799 z "},"a":{"ha":813,"x_min":67,"x_max":775,"o":"m 542 325 q 304 306 364 325 q 221 262 244 288 q 197 186 197 236 q 343 90 197 90 q 481 144 421 90 q 542 297 542 201 l 542 325 m 547 114 q 299 -14 463 -14 q 86 86 138 -14 q 67 197 67 126 q 101 315 67 268 q 199 386 136 361 q 542 426 299 426 l 542 492 q 522 569 542 546 q 379 619 479 619 q 243 572 282 619 q 221 508 221 544 l 221 492 l 93 492 q 90 538 90 506 q 113 606 90 568 q 174 669 135 643 q 382 724 257 724 l 394 724 q 604 667 536 724 q 672 507 672 611 l 672 139 q 684 101 672 113 q 711 90 696 90 q 775 110 744 90 l 775 14 q 668 -14 729 -14 q 578 22 606 -14 q 547 114 550 58 z "},"b":{"ha":810,"x_min":115,"x_max":738,"o":"m 211 113 l 165 0 l 115 0 l 115 1000 l 246 1000 l 246 619 q 331 693 276 663 q 451 724 385 724 q 569 701 518 724 q 657 635 619 679 q 738 371 738 539 l 738 356 q 653 75 738 172 q 450 -14 576 -14 q 211 113 292 -14 m 244 354 q 351 103 244 146 q 425 90 385 90 q 607 354 607 90 q 499 606 607 564 q 425 619 465 619 q 294 563 339 619 q 244 354 244 497 z "},"c":{"ha":756,"x_min":71,"x_max":688,"o":"m 688 278 q 604 61 688 140 q 394 -14 524 -14 l 383 -14 q 160 78 243 -14 q 71 338 71 174 l 71 371 q 160 631 71 535 q 382 724 244 724 l 393 724 q 605 644 522 724 q 688 431 688 564 l 558 431 q 461 606 558 561 q 389 619 429 619 q 313 606 347 619 q 254 564 279 592 q 201 404 201 507 l 201 329 q 253 148 201 206 q 393 90 304 90 q 522 143 481 90 q 563 278 563 196 l 688 278 z "},"d":{"ha":810,"x_min":72,"x_max":694,"o":"m 564 619 l 564 1000 l 694 1000 l 694 0 l 597 0 q 579 97 590 26 q 360 -14 500 -14 q 157 75 233 -14 q 72 356 72 172 l 72 371 q 153 635 72 539 q 360 724 228 724 q 564 619 492 724 m 203 354 q 310 103 203 146 q 383 90 343 90 q 565 354 565 90 q 457 606 565 564 q 383 619 424 619 q 253 563 297 619 q 203 354 203 497 z "},"e":{"ha":772,"x_min":71,"x_max":697,"o":"m 201 325 q 311 108 206 161 q 403 90 347 90 q 492 111 457 90 q 544 160 526 132 q 574 264 574 204 l 697 264 q 614 61 697 138 q 400 -14 531 -14 l 394 -14 q 161 78 249 -14 q 71 340 71 175 l 71 368 q 161 631 71 533 q 390 724 246 724 l 400 724 q 614 643 532 724 q 697 424 697 563 l 697 325 l 201 325 m 393 619 q 265 572 315 619 q 204 426 215 524 l 568 426 l 568 443 q 517 575 568 526 q 393 619 469 619 z "},"f":{"ha":469,"x_min":65,"x_max":439,"o":"m 143 806 q 308 1011 143 1011 q 439 985 386 1011 l 439 889 q 368 907 396 907 q 325 904 339 907 q 300 892 311 901 q 274 819 274 872 l 274 710 l 439 710 l 439 606 l 274 606 l 274 0 l 143 0 l 143 606 l 65 606 l 65 710 l 143 710 l 143 806 z "},"g":{"ha":789,"x_min":50,"x_max":765,"o":"m 621 653 q 690 500 690 593 q 621 343 690 404 q 411 278 547 278 l 317 278 q 247 256 275 278 q 219 201 219 235 q 246 149 219 168 q 317 129 272 129 l 585 129 q 717 78 668 129 q 765 -53 765 26 q 689 -208 765 -151 q 501 -261 618 -261 l 222 -261 q 100 -208 150 -261 q 50 -94 50 -156 q 79 8 50 -35 q 154 71 108 51 q 90 186 90 111 q 120 273 90 238 q 201 326 150 308 q 108 500 108 379 q 178 658 108 599 q 394 724 253 724 l 400 724 q 542 700 479 724 q 654 838 640 749 l 765 838 q 728 719 765 768 q 624 657 690 671 l 621 653 m 238 500 q 284 408 238 435 q 399 382 331 382 q 514 408 467 382 q 561 500 561 435 q 514 592 561 565 q 399 619 467 619 q 284 592 331 619 q 238 500 238 565 m 528 -157 q 604 -131 572 -157 q 636 -72 636 -106 q 613 -17 636 -39 q 546 4 590 4 l 260 4 q 203 -19 226 4 q 179 -76 179 -43 q 203 -133 179 -110 q 260 -157 226 -157 l 528 -157 z "},"h":{"ha":824,"x_min":115,"x_max":715,"o":"m 246 621 q 465 724 333 724 q 696 589 639 724 q 715 478 715 542 l 715 0 l 585 0 l 585 454 q 543 582 585 544 q 435 619 501 619 q 303 563 360 619 q 246 422 246 506 l 246 0 l 115 0 l 115 1000 l 246 1000 l 246 621 z "},"i":{"ha":361,"x_min":113,"x_max":249,"o":"m 115 0 l 115 710 l 246 710 l 246 0 l 115 0 m 113 1000 l 249 1000 l 249 879 l 113 879 l 113 1000 z "},"j":{"ha":361,"x_min":-47,"x_max":249,"o":"m -47 -135 q 25 -156 -1 -156 q 66 -152 51 -156 q 92 -139 81 -149 q 115 -61 115 -117 l 115 710 l 246 710 l 246 -21 q 208 -201 246 -144 q 72 -258 169 -258 q -47 -232 0 -258 l -47 -135 m 113 1000 l 249 1000 l 249 879 l 113 879 l 113 1000 z "},"k":{"ha":743,"x_min":115,"x_max":724,"o":"m 565 0 l 353 264 l 246 153 l 246 0 l 115 0 l 115 1000 l 246 1000 l 246 314 l 563 710 l 706 710 l 432 365 l 724 0 l 565 0 z "},"l":{"ha":372,"x_min":121,"x_max":251,"o":"m 121 0 l 121 1000 l 251 1000 l 251 0 l 121 0 z "},"m":{"ha":1204,"x_min":115,"x_max":1096,"o":"m 540 454 q 413 619 540 619 q 295 563 344 619 q 246 422 246 506 l 246 0 l 115 0 l 115 710 l 210 710 l 228 606 q 451 724 310 724 q 646 606 592 724 q 753 701 697 678 q 864 724 810 724 q 958 709 917 724 q 1031 664 1000 694 q 1096 478 1096 601 l 1096 0 l 965 0 l 965 454 q 838 619 965 619 q 720 563 769 619 q 671 422 671 506 l 671 0 l 540 0 l 540 454 z "},"n":{"ha":824,"x_min":115,"x_max":715,"o":"m 228 606 q 465 724 318 724 q 696 589 639 724 q 715 478 715 542 l 715 0 l 585 0 l 585 454 q 543 582 585 544 q 435 619 501 619 q 303 563 360 619 q 246 422 246 506 l 246 0 l 115 0 l 115 710 l 210 710 l 228 606 z "},"o":{"ha":797,"x_min":72,"x_max":725,"o":"m 594 368 q 538 561 594 496 q 399 619 488 619 q 218 483 261 619 q 203 368 203 435 l 203 342 q 260 149 203 214 q 399 90 310 90 q 579 228 536 90 q 594 342 594 275 l 594 368 m 725 329 q 629 69 725 161 q 399 -14 542 -14 q 168 69 256 -14 q 72 329 72 161 l 72 381 q 168 639 72 549 q 399 724 256 724 q 629 639 542 724 q 725 381 725 549 l 725 329 z "},"p":{"ha":810,"x_min":115,"x_max":738,"o":"m 246 90 l 246 -251 l 115 -251 l 115 710 l 213 710 q 231 613 219 683 q 450 724 310 724 q 653 636 576 724 q 738 354 738 538 l 738 339 q 657 75 738 171 q 450 -14 582 -14 q 246 90 318 -14 m 607 356 q 500 606 607 564 q 426 619 467 619 q 294 563 339 619 q 244 356 244 497 q 353 103 244 146 q 426 90 386 90 q 557 147 513 90 q 607 356 607 213 z "},"q":{"ha":810,"x_min":72,"x_max":694,"o":"m 599 597 l 644 710 l 694 710 l 694 -250 l 564 -250 l 564 90 q 479 17 533 47 q 358 -14 425 -14 q 241 8 292 -14 q 153 75 190 31 q 72 339 72 171 l 72 354 q 157 636 72 538 q 360 724 233 724 q 599 597 518 724 m 565 356 q 458 606 565 564 q 385 619 425 619 q 253 563 297 619 q 203 356 203 497 q 311 103 203 146 q 385 90 344 90 q 515 147 471 90 q 565 356 565 213 z "},"r":{"ha":681,"x_min":115,"x_max":644,"o":"m 644 501 l 640 449 l 525 449 l 525 479 q 500 558 525 528 q 388 619 454 619 q 276 556 314 619 q 246 424 246 503 l 246 0 l 115 0 l 115 710 l 208 710 l 228 604 q 342 706 249 667 q 435 724 382 724 q 526 706 488 724 q 590 658 564 689 q 644 501 644 597 z "},"s":{"ha":742,"x_min":63,"x_max":674,"o":"m 63 192 l 64 222 l 193 222 l 193 208 q 304 97 193 121 q 392 90 338 90 q 494 116 446 90 q 543 189 543 142 q 509 258 543 236 q 424 291 475 279 q 313 313 372 303 q 203 344 254 322 q 117 403 151 365 q 83 513 83 442 q 161 667 83 611 q 374 724 239 724 l 386 724 q 585 667 510 724 q 657 531 657 611 l 656 506 l 526 506 l 526 518 q 369 619 526 619 q 219 557 243 619 q 214 526 214 540 q 248 468 214 488 q 333 438 282 449 q 444 416 385 426 q 554 383 503 406 q 674 214 674 333 q 586 36 674 93 q 372 -14 508 -14 l 351 -14 q 133 50 210 -14 q 63 192 63 108 z "},"t":{"ha":481,"x_min":60,"x_max":433,"o":"m 347 88 q 433 108 383 88 l 433 11 q 304 -14 383 -14 q 181 33 224 -14 q 138 189 138 81 l 138 606 l 60 606 l 60 710 l 142 710 l 186 936 l 268 936 l 268 710 l 433 710 l 433 606 l 268 606 l 268 182 q 318 92 268 103 q 347 88 332 88 z "},"u":{"ha":858,"x_min":108,"x_max":810,"o":"m 810 14 q 722 -14 768 -14 q 652 -4 675 -14 q 614 22 629 6 q 585 103 588 51 q 431 -4 531 24 q 353 -14 397 -14 q 261 1 307 -14 q 181 44 215 15 q 108 232 108 110 l 108 710 l 239 710 l 239 256 q 281 128 239 165 q 389 90 322 90 q 521 147 464 90 q 578 288 578 204 l 578 710 l 708 710 l 708 139 q 720 101 708 113 q 747 90 732 90 q 810 110 779 90 l 810 14 z "},"v":{"ha":711,"x_min":17,"x_max":694,"o":"m 425 0 l 286 0 l 17 710 l 156 710 l 358 167 l 364 167 l 567 710 l 694 710 l 425 0 z "},"w":{"ha":1126,"x_min":28,"x_max":1096,"o":"m 558 496 l 397 0 l 261 0 l 28 710 l 163 710 l 328 190 l 333 190 l 501 710 l 629 710 l 794 190 l 800 190 l 968 710 l 1096 710 l 864 0 l 728 0 l 564 496 l 558 496 z "},"x":{"ha":721,"x_min":25,"x_max":696,"o":"m 25 0 l 286 360 l 39 710 l 194 710 l 365 468 l 540 710 l 683 710 l 435 368 l 696 0 l 540 0 l 356 260 l 168 0 l 25 0 z "},"y":{"ha":711,"x_min":17,"x_max":694,"o":"m 65 -132 q 135 -151 108 -151 q 179 -147 161 -151 q 217 -125 197 -142 q 293 7 264 -85 l 17 710 l 156 710 l 360 186 l 365 186 l 567 710 l 694 710 l 429 28 q 332 -164 371 -115 q 254 -235 293 -212 q 163 -258 215 -258 q 65 -239 108 -258 l 65 -132 z "},"z":{"ha":643,"x_min":50,"x_max":588,"o":"m 50 0 l 50 53 l 396 606 l 71 606 l 71 710 l 576 710 l 576 658 l 229 104 l 588 104 l 588 0 l 50 0 z "},"{":{"ha":438,"x_min":56,"x_max":382,"o":"m 56 421 q 153 463 126 421 q 163 500 163 478 l 163 758 q 300 946 163 922 q 382 953 339 953 l 382 883 q 314 868 335 883 q 272 778 272 838 q 269 650 272 717 q 263 515 265 583 q 233 410 260 447 q 139 372 207 372 l 139 360 q 233 322 207 360 q 263 217 260 285 q 269 82 265 149 q 272 -33 272 15 q 283 -102 272 -83 q 308 -132 293 -121 q 382 -151 335 -151 l 382 -221 q 229 -186 281 -221 q 163 -26 163 -140 l 163 232 q 128 293 163 271 q 56 311 100 311 l 56 421 z "},"|":{"ha":344,"x_min":117,"x_max":228,"o":"m 117 -276 l 117 1001 l 228 1001 l 228 -276 l 117 -276 z "},"}":{"ha":438,"x_min":56,"x_max":382,"o":"m 382 311 q 285 269 313 311 q 275 232 275 254 l 275 -26 q 139 -214 275 -190 q 56 -221 99 -221 l 56 -151 q 124 -136 103 -151 q 165 -44 165 -106 q 169 82 165 15 q 175 217 172 149 q 204 322 178 285 q 299 360 231 360 l 299 372 q 204 410 231 372 q 175 515 178 447 q 169 650 172 583 q 165 767 165 717 q 155 834 165 815 q 129 864 144 853 q 56 883 103 883 l 56 953 q 208 918 157 953 q 275 758 275 872 l 275 500 q 344 425 275 440 q 382 421 363 421 l 382 311 z "},"~":{"ha":957,"x_min":89,"x_max":872,"o":"m 872 418 q 736 326 819 360 q 649 310 694 310 q 562 324 601 310 q 483 356 522 339 q 402 387 443 372 q 314 401 361 401 q 153 347 238 401 q 89 293 117 322 l 89 411 q 150 463 117 440 q 315 519 236 519 q 399 505 360 519 q 478 474 439 490 q 559 442 518 457 q 647 428 600 428 q 808 482 729 428 q 872 536 844 506 l 872 418 z "}," ":{"ha":339,"x_min":0,"x_max":0,"o":""},"¡":{"ha":353,"x_min":96,"x_max":256,"o":"m 106 708 l 246 708 l 246 554 l 106 554 l 106 708 m 222 465 q 256 -244 225 424 l 96 -244 l 131 465 l 222 465 z "},"¢":{"ha":732,"x_min":67,"x_max":683,"o":"m 683 400 q 610 194 683 272 q 421 110 539 118 l 436 -10 l 335 -10 l 349 110 q 146 210 224 118 q 67 460 67 304 l 67 493 q 146 744 67 649 q 349 844 222 836 l 335 963 l 436 963 l 421 844 q 664 667 604 826 q 683 553 683 615 l 554 553 q 458 728 554 683 q 385 742 425 742 q 309 728 343 742 q 250 686 275 714 q 197 526 197 629 l 197 451 q 249 270 197 328 q 389 213 300 213 q 517 265 476 213 q 558 400 558 318 l 683 400 z "},"£":{"ha":829,"x_min":40,"x_max":785,"o":"m 40 531 l 215 531 l 215 693 q 297 897 215 825 q 497 967 374 967 l 510 967 q 764 813 701 967 q 785 693 785 761 l 785 681 l 649 681 l 649 701 q 606 803 649 764 q 500 843 564 843 q 393 805 435 843 q 351 701 351 767 l 351 531 l 611 531 l 611 407 l 351 407 l 328 124 l 749 124 l 749 0 l 90 0 l 90 124 l 215 124 l 215 407 l 40 407 l 40 531 z "},"¤":{"ha":867,"x_min":86,"x_max":785,"o":"m 160 258 q 89 467 89 353 q 158 676 89 579 l 88 749 l 154 815 l 225 743 q 435 813 322 813 q 643 740 547 813 l 718 815 l 785 749 l 710 674 q 778 468 778 579 q 707 260 778 354 l 783 185 l 717 118 l 640 193 q 433 124 547 124 q 226 192 321 124 l 153 118 l 86 185 l 160 258 m 185 468 q 258 292 185 365 q 433 219 331 219 q 609 292 536 219 q 682 468 682 365 q 609 644 682 571 q 433 717 536 717 q 258 644 331 717 q 185 468 185 571 z "},"¥":{"ha":881,"x_min":36,"x_max":843,"o":"m 82 611 l 232 611 l 36 953 l 192 953 l 446 510 l 451 510 l 703 953 l 843 953 l 647 611 l 801 611 l 801 522 l 596 522 l 539 421 l 801 421 l 801 332 l 508 332 l 508 0 l 372 0 l 372 332 l 82 332 l 82 421 l 342 421 l 283 522 l 82 522 l 82 611 z "},"¦":{"ha":374,"x_min":125,"x_max":249,"o":"m 125 369 l 249 369 l 249 0 l 125 0 l 125 369 m 125 953 l 249 953 l 249 582 l 125 582 l 125 953 z "},"§":{"ha":714,"x_min":53,"x_max":660,"o":"m 53 364 q 171 572 53 501 q 98 647 126 604 q 69 756 69 690 q 147 910 69 854 q 360 967 225 967 l 372 967 q 571 910 496 967 q 643 774 643 854 l 642 749 l 513 749 l 513 761 q 356 863 513 863 q 206 800 229 863 q 200 769 200 783 q 234 689 200 721 q 319 631 268 657 q 430 582 371 606 q 540 528 489 558 q 660 344 660 457 q 540 136 660 208 q 643 -42 643 63 q 565 -202 643 -146 q 353 -258 488 -258 l 340 -258 q 142 -201 217 -258 q 69 -65 69 -146 l 71 -40 l 200 -40 l 200 -53 q 357 -154 200 -154 q 506 -92 483 -154 q 513 -61 513 -75 q 478 19 513 -12 q 393 77 444 51 q 283 126 342 103 q 172 181 224 150 q 53 364 53 251 m 450 186 q 531 308 531 240 q 444 435 531 381 q 358 478 406 458 q 263 521 310 499 q 209 476 236 506 q 182 401 182 446 q 206 326 182 357 q 269 272 231 296 q 355 228 307 249 q 450 186 403 208 z "},"¨":{"ha":611,"x_min":113,"x_max":500,"o":"m 113 1015 l 238 1015 l 238 879 l 113 879 l 113 1015 m 374 1015 l 500 1015 l 500 879 l 374 879 l 374 1015 z "},"©":{"ha":1083,"x_min":50,"x_max":1033,"o":"m 682 557 q 639 660 682 622 q 546 693 601 693 q 411 617 447 693 q 400 557 400 592 l 400 397 q 446 292 400 328 q 547 260 486 260 q 646 299 607 260 q 685 411 685 338 l 775 411 q 710 236 775 297 q 550 179 647 179 l 543 179 q 376 238 440 179 q 307 417 307 301 l 307 536 q 376 714 307 650 q 542 772 440 772 l 549 772 q 758 643 707 772 q 775 539 775 599 l 682 539 l 682 557 m 889 824 q 922 790 889 824 q 994 668 956 757 q 1033 478 1033 579 q 994 285 1033 375 q 889 129 956 196 q 733 24 822 63 q 542 -14 643 -14 q 349 24 439 -14 q 193 129 260 63 q 88 285 126 196 q 50 478 50 375 q 88 668 50 579 q 193 824 126 757 q 349 928 260 890 q 542 967 439 967 q 733 928 643 967 q 889 824 822 890 m 976 476 q 943 649 976 569 q 850 786 910 728 q 542 910 725 910 q 231 786 354 910 q 106 478 106 661 q 231 165 106 290 q 542 42 354 42 q 850 165 725 42 q 976 476 976 289 z "},"ª":{"ha":576,"x_min":76,"x_max":507,"o":"m 365 725 q 211 710 267 725 q 156 646 156 694 q 178 596 156 610 q 246 582 200 582 q 328 615 290 582 q 365 707 365 647 l 365 725 m 218 518 q 76 642 76 518 q 156 761 76 732 q 365 786 219 786 l 365 825 q 267 903 365 903 q 183 874 208 903 q 169 836 169 858 l 169 825 l 93 825 q 90 844 90 836 q 140 933 90 900 q 268 967 190 967 l 275 967 q 444 835 444 967 l 444 611 q 452 589 444 596 q 469 582 460 582 q 507 593 479 582 l 507 535 q 443 518 474 518 q 368 596 375 518 q 218 518 317 518 z "},"«":{"ha":639,"x_min":68,"x_max":561,"o":"m 492 226 l 321 468 l 492 710 l 561 710 l 432 468 l 561 226 l 492 226 m 238 226 l 68 468 l 238 710 l 308 710 l 178 468 l 308 226 l 238 226 z "},"¬":{"ha":857,"x_min":51,"x_max":772,"o":"m 772 242 l 656 242 l 656 500 l 51 500 l 51 629 l 772 629 l 772 242 z "},"­":{"ha":543,"x_min":96,"x_max":447,"o":"m 96 443 l 447 443 l 447 307 l 96 307 l 96 443 z "},"®":{"ha":1083,"x_min":50,"x_max":1033,"o":"m 889 824 q 922 790 889 824 q 994 668 956 757 q 1033 478 1033 579 q 994 285 1033 375 q 889 129 956 196 q 733 24 822 63 q 542 -14 643 -14 q 349 24 439 -14 q 193 129 260 63 q 88 285 126 196 q 50 478 50 375 q 88 668 50 579 q 193 824 126 757 q 349 928 260 890 q 542 967 439 967 q 733 928 643 967 q 889 824 822 890 m 978 478 q 944 650 978 571 q 853 788 911 729 q 542 911 726 911 q 231 788 354 911 q 106 478 106 663 q 231 165 106 290 q 542 42 354 42 q 853 165 726 42 q 978 478 978 289 m 793 192 q 751 183 772 183 q 714 188 729 183 q 686 204 699 192 q 661 285 661 232 q 652 365 661 336 q 631 411 643 393 q 568 443 606 443 l 431 443 l 431 188 l 342 188 l 342 760 l 601 760 q 711 719 664 760 q 760 624 760 679 q 731 532 760 568 q 667 482 703 496 q 742 383 722 460 q 750 317 750 354 q 756 253 750 279 q 793 217 761 228 l 793 192 m 672 604 q 647 660 672 638 q 585 683 621 683 l 431 683 l 431 518 l 585 518 q 647 542 621 518 q 672 599 672 565 l 672 604 z "},"¯":{"ha":639,"x_min":99,"x_max":540,"o":"m 99 919 l 99 1022 l 540 1022 l 540 919 l 99 919 z "},"°":{"ha":547,"x_min":65,"x_max":482,"o":"m 482 758 q 419 611 482 671 q 274 550 357 550 q 128 611 190 550 q 65 758 65 671 q 126 906 65 842 q 274 967 186 967 q 420 905 358 967 q 482 758 482 843 m 403 757 q 364 846 403 810 q 272 882 326 882 q 181 846 219 882 q 143 757 143 810 q 181 668 143 704 q 274 632 219 632 q 364 668 326 632 q 403 757 403 704 z "},"±":{"ha":854,"x_min":71,"x_max":782,"o":"m 76 0 l 76 115 l 775 115 l 775 0 l 76 0 m 483 506 l 782 506 l 782 389 l 483 389 l 483 186 l 368 186 l 368 389 l 71 389 l 71 506 l 368 506 l 368 710 l 483 710 l 483 506 z "},"²":{"ha":533,"x_min":85,"x_max":444,"o":"m 85 597 q 136 715 85 668 q 156 733 147 726 l 308 847 q 368 956 368 890 q 319 1033 368 1008 q 265 1043 300 1043 q 208 1028 231 1043 q 175 996 186 1014 q 160 942 160 968 l 160 922 l 86 922 q 85 938 85 929 q 89 973 85 944 q 111 1032 93 1001 q 271 1111 160 1111 q 406 1058 358 1111 q 443 964 443 1014 q 426 876 443 914 q 349 794 408 839 l 203 683 q 167 647 167 656 l 444 647 l 444 579 l 85 579 l 85 597 z "},"³":{"ha":504,"x_min":58,"x_max":432,"o":"m 336 851 q 432 721 432 817 q 381 613 432 653 q 250 572 329 572 l 240 572 q 106 615 153 572 q 58 728 58 657 l 58 733 l 133 733 l 133 725 q 242 640 133 640 q 326 662 294 640 q 357 731 357 683 q 321 794 357 776 q 239 813 285 813 l 182 813 l 182 881 l 240 881 q 314 901 283 881 q 344 965 344 922 q 315 1025 344 1007 q 244 1043 285 1043 q 174 1023 203 1043 q 146 963 146 1003 l 146 956 l 71 956 l 71 969 q 119 1073 71 1035 q 243 1111 168 1111 l 250 1111 q 371 1073 322 1111 q 419 969 419 1035 q 336 851 419 890 z "},"´":{"ha":463,"x_min":94,"x_max":351,"o":"m 94 799 l 225 1000 l 350 1000 l 351 996 l 190 799 l 94 799 z "},"µ":{"ha":850,"x_min":114,"x_max":815,"o":"m 815 14 q 728 -14 774 -14 q 658 -4 681 -14 q 619 22 635 6 q 590 103 593 51 q 436 -4 536 24 q 367 -14 403 -14 q 236 21 293 -14 l 244 -44 l 244 -224 l 114 -224 l 114 710 l 244 710 l 244 256 q 286 128 244 165 q 394 90 328 90 q 526 147 469 90 q 583 288 583 204 l 583 710 l 714 710 l 714 139 q 726 101 714 113 q 753 90 738 90 q 815 110 785 90 l 815 14 z "},"¶":{"ha":728,"x_min":35,"x_max":668,"o":"m 301 347 q 111 446 188 361 q 35 649 35 531 q 122 864 35 774 q 338 953 210 953 l 668 953 l 668 868 l 576 868 l 576 -235 l 489 -235 l 489 868 l 389 868 l 389 -235 l 301 -235 l 301 347 z "},"·":{"ha":332,"x_min":96,"x_max":236,"o":"m 96 478 l 236 478 l 236 322 l 96 322 l 96 478 z "},"¸":{"ha":486,"x_min":97,"x_max":389,"o":"m 235 -24 q 389 -147 389 -24 q 332 -249 389 -215 q 243 -274 289 -274 q 97 -243 153 -274 l 110 -175 q 211 -203 165 -203 q 303 -140 303 -203 q 281 -98 303 -112 q 231 -83 260 -83 l 201 -83 l 201 -24 l 235 -24 z "},"¹":{"ha":464,"x_min":69,"x_max":394,"o":"m 69 1054 q 253 1106 147 1060 l 282 1106 l 282 654 l 394 654 l 394 586 l 69 586 l 69 654 l 207 654 l 207 1006 l 69 1006 l 69 1054 z "},"º":{"ha":544,"x_min":74,"x_max":471,"o":"m 392 750 q 356 867 392 832 q 272 903 321 903 q 188 867 224 903 q 153 750 153 832 l 153 735 q 188 617 153 653 q 272 582 224 582 q 356 617 321 582 q 392 735 392 653 l 392 750 m 471 726 q 414 569 471 624 q 272 518 360 518 q 131 569 185 518 q 74 726 74 624 l 74 758 q 131 917 74 861 q 272 967 185 967 q 414 917 360 967 q 471 758 471 861 l 471 726 z "},"»":{"ha":639,"x_min":78,"x_max":571,"o":"m 78 226 l 208 468 l 78 710 l 149 710 l 319 468 l 149 226 l 78 226 m 332 226 l 461 468 l 332 710 l 401 710 l 571 468 l 401 226 l 332 226 z "},"¼":{"ha":975,"x_min":50,"x_max":938,"o":"m 275 0 l 199 0 l 782 953 l 854 953 l 275 0 m 50 899 q 233 950 128 904 l 263 950 l 263 499 l 375 499 l 375 431 l 50 431 l 50 499 l 188 499 l 188 850 l 50 850 l 50 899 m 558 196 q 718 519 663 354 l 794 519 q 728 353 771 431 q 628 194 661 232 l 799 194 l 799 340 q 839 443 824 392 l 874 443 l 874 194 l 938 194 l 938 126 l 874 126 l 874 0 l 799 0 l 799 126 l 558 126 l 558 196 z "},"½":{"ha":1008,"x_min":46,"x_max":967,"o":"m 247 0 l 171 0 l 754 953 l 826 953 l 247 0 m 46 899 q 229 950 124 904 l 258 950 l 258 499 l 371 499 l 371 431 l 46 431 l 46 499 l 183 499 l 183 850 l 46 850 l 46 899 m 607 18 q 658 136 607 89 q 678 154 669 147 l 831 268 q 890 376 890 311 q 842 454 890 429 q 788 464 822 464 q 731 449 753 464 q 697 417 708 435 q 682 363 682 389 l 682 343 l 608 343 q 607 358 607 350 q 611 394 607 365 q 633 453 615 422 q 793 532 682 532 q 928 478 881 532 q 965 385 965 435 q 948 297 965 335 q 871 215 931 260 l 725 104 q 689 68 689 78 l 967 68 l 967 0 l 607 0 l 607 18 z "},"¾":{"ha":969,"x_min":43,"x_max":931,"o":"m 275 0 l 199 0 l 782 953 l 854 953 l 275 0 m 551 196 q 711 519 656 354 l 788 519 q 721 353 764 431 q 621 194 654 232 l 792 194 l 792 340 q 832 443 817 392 l 867 443 l 867 194 l 931 194 l 931 126 l 867 126 l 867 0 l 792 0 l 792 126 l 551 126 l 551 196 m 321 693 q 417 563 417 658 q 365 454 417 494 q 235 414 314 414 l 225 414 q 90 456 138 414 q 43 569 43 499 l 43 575 l 118 575 l 118 567 q 226 482 118 482 q 310 503 279 482 q 342 572 342 525 q 306 636 342 618 q 224 654 269 654 l 167 654 l 167 722 l 225 722 q 299 743 268 722 q 329 807 329 764 q 299 867 329 849 q 229 885 269 885 q 159 865 188 885 q 131 804 131 844 l 131 797 l 56 797 l 56 811 q 104 915 56 876 q 228 953 153 953 l 235 953 q 356 915 307 953 q 404 811 404 876 q 321 693 404 732 z "},"¿":{"ha":688,"x_min":49,"x_max":654,"o":"m 406 556 l 261 556 l 261 710 l 406 710 l 406 556 m 650 74 q 654 21 654 57 q 640 -64 654 -15 q 589 -156 625 -112 q 349 -257 506 -257 l 340 -257 q 106 -153 185 -257 q 61 -64 74 -110 q 49 28 49 -18 q 65 114 49 72 q 104 186 81 156 q 156 239 128 217 q 208 283 185 261 q 248 328 232 304 q 264 385 264 351 l 264 453 l 403 453 l 403 364 q 347 240 403 299 q 294 193 322 215 q 242 146 267 171 q 186 18 186 88 q 222 -81 186 -37 q 350 -133 268 -133 q 488 -72 443 -133 q 517 22 517 -32 l 514 74 l 650 74 z "},"À":{"ha":906,"x_min":6,"x_max":900,"o":"m 672 207 l 217 207 l 138 0 l 6 0 l 378 953 l 528 953 l 900 0 l 753 0 l 672 207 m 442 789 l 265 331 l 625 331 l 450 789 l 442 789 m 403 1042 l 243 1239 l 244 1243 l 368 1243 l 500 1042 l 403 1042 z "},"Á":{"ha":906,"x_min":6,"x_max":900,"o":"m 672 207 l 217 207 l 138 0 l 6 0 l 378 953 l 528 953 l 900 0 l 753 0 l 672 207 m 442 789 l 265 331 l 625 331 l 450 789 l 442 789 m 406 1042 l 536 1243 l 661 1243 l 663 1239 l 501 1042 l 406 1042 z "},"Â":{"ha":906,"x_min":6,"x_max":900,"o":"m 672 207 l 217 207 l 138 0 l 6 0 l 378 953 l 528 953 l 900 0 l 753 0 l 672 207 m 442 789 l 265 331 l 625 331 l 450 789 l 442 789 m 396 1243 l 504 1243 l 692 1042 l 581 1042 l 450 1165 l 318 1042 l 207 1042 l 396 1243 z "},"Ã":{"ha":906,"x_min":6,"x_max":900,"o":"m 672 207 l 217 207 l 138 0 l 6 0 l 378 953 l 528 953 l 900 0 l 753 0 l 672 207 m 442 789 l 265 331 l 625 331 l 450 789 l 442 789 m 718 1186 q 681 1089 718 1129 q 563 1042 639 1042 q 466 1058 521 1042 q 383 1081 411 1074 q 328 1089 356 1089 q 251 1042 265 1089 l 182 1042 q 269 1172 182 1132 q 336 1186 299 1186 q 402 1178 372 1186 q 461 1161 432 1171 q 572 1138 538 1138 q 649 1186 633 1138 l 718 1186 z "},"Ä":{"ha":906,"x_min":6,"x_max":900,"o":"m 672 207 l 217 207 l 138 0 l 6 0 l 378 953 l 528 953 l 900 0 l 753 0 l 672 207 m 442 789 l 265 331 l 625 331 l 450 789 l 442 789 m 256 1176 l 381 1176 l 381 1040 l 256 1040 l 256 1176 m 517 1176 l 643 1176 l 643 1040 l 517 1040 l 517 1176 z "},"Å":{"ha":906,"x_min":6,"x_max":900,"o":"m 672 207 l 217 207 l 138 0 l 6 0 l 378 953 l 528 953 l 900 0 l 753 0 l 672 207 m 442 789 l 265 331 l 625 331 l 450 789 l 442 789 m 593 1146 q 552 1048 593 1089 q 453 1007 511 1007 q 354 1047 396 1007 q 313 1146 313 1086 q 353 1245 313 1204 q 453 1286 394 1286 q 551 1244 508 1286 q 593 1146 593 1206 m 453 1072 q 508 1094 485 1072 q 531 1147 531 1115 q 508 1199 531 1178 q 453 1221 485 1221 q 398 1199 421 1221 q 375 1146 375 1178 q 398 1093 375 1114 q 453 1072 421 1072 z "},"Æ":{"ha":1365,"x_min":10,"x_max":1304,"o":"m 704 207 l 249 207 l 140 0 l 10 0 l 515 953 l 1294 953 l 1276 829 l 696 829 l 765 549 l 1232 549 l 1232 425 l 796 425 l 871 124 l 1285 124 l 1304 0 l 756 0 l 704 207 m 556 789 l 315 331 l 675 331 l 564 789 l 556 789 z "},"Ç":{"ha":921,"x_min":86,"x_max":846,"o":"m 846 363 q 736 78 846 178 q 478 -14 638 -14 q 197 92 300 -14 q 86 414 86 204 l 86 539 q 197 861 86 747 q 478 967 301 967 q 739 872 640 967 q 846 588 846 772 l 710 588 q 644 783 710 715 q 478 843 585 843 q 242 678 294 843 q 222 539 222 619 l 222 414 q 374 128 222 183 q 475 110 421 110 q 573 124 529 110 q 647 169 617 139 q 715 363 715 238 l 846 363 m 469 -24 q 624 -147 624 -24 q 567 -249 624 -215 q 478 -274 524 -274 q 332 -243 388 -274 l 344 -175 q 444 -203 400 -203 q 538 -140 538 -203 q 516 -98 538 -112 q 465 -83 494 -83 l 436 -83 l 436 -24 l 469 -24 z "},"È":{"ha":824,"x_min":128,"x_max":763,"o":"m 128 0 l 128 953 l 753 953 l 735 829 l 264 829 l 264 549 l 690 549 l 690 425 l 264 425 l 264 124 l 743 124 l 763 0 l 128 0 m 410 1042 l 250 1239 l 251 1243 l 375 1243 l 507 1042 l 410 1042 z "},"É":{"ha":824,"x_min":128,"x_max":763,"o":"m 128 0 l 128 953 l 753 953 l 735 829 l 264 829 l 264 549 l 690 549 l 690 425 l 264 425 l 264 124 l 743 124 l 763 0 l 128 0 m 394 1042 l 525 1243 l 650 1243 l 651 1239 l 490 1042 l 394 1042 z "},"Ê":{"ha":824,"x_min":128,"x_max":763,"o":"m 128 0 l 128 953 l 753 953 l 735 829 l 264 829 l 264 549 l 690 549 l 690 425 l 264 425 l 264 124 l 743 124 l 763 0 l 128 0 m 383 1243 l 492 1243 l 679 1042 l 568 1042 l 438 1165 l 306 1042 l 194 1042 l 383 1243 z "},"Ë":{"ha":824,"x_min":128,"x_max":763,"o":"m 128 0 l 128 953 l 753 953 l 735 829 l 264 829 l 264 549 l 690 549 l 690 425 l 264 425 l 264 124 l 743 124 l 763 0 l 128 0 m 247 1178 l 372 1178 l 372 1042 l 247 1042 l 247 1178 m 508 1178 l 635 1178 l 635 1042 l 508 1042 l 508 1178 z "},"Ì":{"ha":506,"x_min":44,"x_max":432,"o":"m 74 953 l 432 953 l 432 829 l 321 829 l 321 124 l 432 124 l 432 0 l 74 0 l 74 124 l 185 124 l 185 829 l 74 829 l 74 953 m 204 1042 l 44 1239 l 46 1243 l 169 1243 l 301 1042 l 204 1042 z "},"Í":{"ha":506,"x_min":74,"x_max":457,"o":"m 74 953 l 432 953 l 432 829 l 321 829 l 321 124 l 432 124 l 432 0 l 74 0 l 74 124 l 185 124 l 185 829 l 74 829 l 74 953 m 200 1042 l 331 1243 l 456 1243 l 457 1239 l 296 1042 l 200 1042 z "},"Î":{"ha":506,"x_min":11,"x_max":496,"o":"m 74 953 l 432 953 l 432 829 l 321 829 l 321 124 l 432 124 l 432 0 l 74 0 l 74 124 l 185 124 l 185 829 l 74 829 l 74 953 m 200 1243 l 308 1243 l 496 1042 l 385 1042 l 254 1165 l 122 1042 l 11 1042 l 200 1243 z "},"Ï":{"ha":506,"x_min":60,"x_max":447,"o":"m 74 953 l 432 953 l 432 829 l 321 829 l 321 124 l 432 124 l 432 0 l 74 0 l 74 124 l 185 124 l 185 829 l 74 829 l 74 953 m 60 1178 l 185 1178 l 185 1042 l 60 1042 l 60 1178 m 321 1178 l 447 1178 l 447 1042 l 321 1042 l 321 1178 z "},"Ð":{"ha":946,"x_min":7,"x_max":861,"o":"m 7 521 l 136 521 l 136 953 l 467 953 q 744 847 639 953 q 861 525 861 733 l 861 428 q 744 106 861 219 q 467 0 639 0 l 136 0 l 136 431 l 7 431 l 7 521 m 467 124 q 706 289 650 124 q 725 428 725 346 l 725 525 q 569 811 725 756 q 467 829 522 829 l 272 829 l 272 521 l 474 521 l 474 431 l 272 431 l 272 124 l 467 124 z "},"Ñ":{"ha":964,"x_min":128,"x_max":836,"o":"m 721 0 l 256 697 l 251 696 l 251 0 l 128 0 l 128 953 l 247 953 l 708 264 l 713 265 l 713 953 l 836 953 l 836 0 l 721 0 m 751 1186 q 714 1089 751 1129 q 596 1042 672 1042 q 499 1058 554 1042 q 417 1081 444 1074 q 361 1089 389 1089 q 285 1042 299 1089 l 215 1042 q 303 1172 215 1132 q 369 1186 332 1186 q 435 1178 406 1186 q 494 1161 465 1171 q 606 1138 571 1138 q 682 1186 667 1138 l 751 1186 z "},"Ò":{"ha":958,"x_min":85,"x_max":874,"o":"m 738 539 q 583 825 738 769 q 479 843 535 843 q 375 826 422 843 q 294 772 328 808 q 221 539 221 694 l 221 414 q 375 128 221 183 q 479 110 422 110 q 583 127 535 110 q 664 181 631 144 q 738 414 738 258 l 738 539 m 874 414 q 758 92 874 206 q 479 -14 650 -14 q 200 92 308 -14 q 85 414 85 206 l 85 539 q 200 861 85 747 q 479 967 308 967 q 758 861 650 967 q 874 539 874 747 l 874 414 m 435 1042 l 275 1239 l 276 1243 l 400 1243 l 532 1042 l 435 1042 z "},"Ó":{"ha":958,"x_min":85,"x_max":874,"o":"m 738 539 q 583 825 738 769 q 479 843 535 843 q 375 826 422 843 q 294 772 328 808 q 221 539 221 694 l 221 414 q 375 128 221 183 q 479 110 422 110 q 583 127 535 110 q 664 181 631 144 q 738 414 738 258 l 738 539 m 874 414 q 758 92 874 206 q 479 -14 650 -14 q 200 92 308 -14 q 85 414 85 206 l 85 539 q 200 861 85 747 q 479 967 308 967 q 758 861 650 967 q 874 539 874 747 l 874 414 m 425 1042 l 556 1243 l 681 1243 l 682 1239 l 521 1042 l 425 1042 z "},"Ô":{"ha":958,"x_min":85,"x_max":874,"o":"m 738 539 q 583 825 738 769 q 479 843 535 843 q 375 826 422 843 q 294 772 328 808 q 221 539 221 694 l 221 414 q 375 128 221 183 q 479 110 422 110 q 583 127 535 110 q 664 181 631 144 q 738 414 738 258 l 738 539 m 874 414 q 758 92 874 206 q 479 -14 650 -14 q 200 92 308 -14 q 85 414 85 206 l 85 539 q 200 861 85 747 q 479 967 308 967 q 758 861 650 967 q 874 539 874 747 l 874 414 m 422 1243 l 531 1243 l 718 1042 l 607 1042 l 476 1165 l 344 1042 l 233 1042 l 422 1243 z "},"Õ":{"ha":958,"x_min":85,"x_max":874,"o":"m 738 539 q 583 825 738 769 q 479 843 535 843 q 375 826 422 843 q 294 772 328 808 q 221 539 221 694 l 221 414 q 375 128 221 183 q 479 110 422 110 q 583 127 535 110 q 664 181 631 144 q 738 414 738 258 l 738 539 m 874 414 q 758 92 874 206 q 479 -14 650 -14 q 200 92 308 -14 q 85 414 85 206 l 85 539 q 200 861 85 747 q 479 967 308 967 q 758 861 650 967 q 874 539 874 747 l 874 414 m 747 1186 q 711 1089 747 1129 q 592 1042 668 1042 q 495 1058 550 1042 q 413 1081 440 1074 q 357 1089 385 1089 q 281 1042 294 1089 l 211 1042 q 297 1172 211 1132 q 365 1186 328 1186 q 431 1178 401 1186 q 489 1161 461 1171 q 601 1138 567 1138 q 678 1186 663 1138 l 747 1186 z "},"Ö":{"ha":958,"x_min":85,"x_max":874,"o":"m 738 539 q 583 825 738 769 q 479 843 535 843 q 375 826 422 843 q 294 772 328 808 q 221 539 221 694 l 221 414 q 375 128 221 183 q 479 110 422 110 q 583 127 535 110 q 664 181 631 144 q 738 414 738 258 l 738 539 m 874 414 q 758 92 874 206 q 479 -14 650 -14 q 200 92 308 -14 q 85 414 85 206 l 85 539 q 200 861 85 747 q 479 967 308 967 q 758 861 650 967 q 874 539 874 747 l 874 414 m 288 1178 l 413 1178 l 413 1042 l 288 1042 l 288 1178 m 549 1178 l 675 1178 l 675 1042 l 549 1042 l 549 1178 z "},"×":{"ha":854,"x_min":138,"x_max":717,"o":"m 138 565 l 214 647 l 428 436 l 640 647 l 717 565 l 504 354 l 717 144 l 640 63 l 428 271 l 214 63 l 138 144 l 350 354 l 138 565 z "},"Ø":{"ha":958,"x_min":85,"x_max":874,"o":"m 479 967 q 696 910 604 967 l 778 1047 l 867 1047 l 756 863 q 874 539 874 750 l 874 414 q 758 92 874 206 q 479 -14 650 -14 q 264 42 357 -14 l 186 -90 l 97 -90 l 204 88 q 85 414 85 201 l 85 539 q 200 861 85 747 q 479 967 308 967 m 221 414 q 274 204 221 278 l 631 801 q 496 843 568 843 q 375 826 422 843 q 294 772 328 808 q 221 539 221 694 l 221 414 m 329 150 q 463 110 390 110 q 583 127 535 110 q 664 181 631 144 q 738 414 738 258 l 738 539 q 686 746 738 667 l 329 150 z "},"Ù":{"ha":944,"x_min":119,"x_max":825,"o":"m 825 953 l 825 304 q 731 72 825 160 q 481 -14 636 -14 l 463 -14 q 214 72 307 -14 q 119 304 119 158 l 119 953 l 256 953 l 256 307 q 314 167 256 221 q 475 110 376 110 q 631 165 574 110 q 689 307 689 219 l 689 953 l 825 953 m 435 1042 l 275 1239 l 276 1243 l 400 1243 l 532 1042 l 435 1042 z "},"Ú":{"ha":944,"x_min":119,"x_max":825,"o":"m 825 953 l 825 304 q 731 72 825 160 q 481 -14 636 -14 l 463 -14 q 214 72 307 -14 q 119 304 119 158 l 119 953 l 256 953 l 256 307 q 314 167 256 221 q 475 110 376 110 q 631 165 574 110 q 689 307 689 219 l 689 953 l 825 953 m 422 1042 l 553 1243 l 678 1243 l 679 1239 l 518 1042 l 422 1042 z "},"Û":{"ha":944,"x_min":119,"x_max":825,"o":"m 825 953 l 825 304 q 731 72 825 160 q 481 -14 636 -14 l 463 -14 q 214 72 307 -14 q 119 304 119 158 l 119 953 l 256 953 l 256 307 q 314 167 256 221 q 475 110 376 110 q 631 165 574 110 q 689 307 689 219 l 689 953 l 825 953 m 418 1243 l 526 1243 l 714 1042 l 603 1042 l 472 1165 l 340 1042 l 229 1042 l 418 1243 z "},"Ü":{"ha":944,"x_min":119,"x_max":825,"o":"m 825 953 l 825 304 q 731 72 825 160 q 481 -14 636 -14 l 463 -14 q 214 72 307 -14 q 119 304 119 158 l 119 953 l 256 953 l 256 307 q 314 167 256 221 q 475 110 376 110 q 631 165 574 110 q 689 307 689 219 l 689 953 l 825 953 m 279 1178 l 404 1178 l 404 1042 l 279 1042 l 279 1178 m 540 1178 l 667 1178 l 667 1042 l 540 1042 l 540 1178 z "},"Ý":{"ha":794,"x_min":-7,"x_max":800,"o":"m 465 368 l 465 0 l 329 0 l 329 368 l -7 953 l 149 953 l 403 510 l 408 510 l 660 953 l 800 953 l 465 368 m 360 1042 l 490 1243 l 615 1243 l 617 1239 l 456 1042 l 360 1042 z "},"Þ":{"ha":879,"x_min":128,"x_max":824,"o":"m 264 225 l 264 0 l 128 0 l 128 953 l 264 953 l 264 781 l 539 781 q 740 706 660 781 q 824 503 824 626 q 740 300 824 379 q 539 225 660 225 l 264 225 m 264 657 l 264 349 l 526 349 q 640 394 592 349 q 688 503 688 439 q 642 611 688 567 q 526 657 593 657 l 264 657 z "},"ß":{"ha":853,"x_min":64,"x_max":785,"o":"m 785 278 q 760 172 785 225 q 694 81 736 118 q 475 0 607 0 l 360 0 l 360 104 l 461 104 q 597 160 544 104 q 654 297 654 218 q 597 426 654 372 q 461 481 542 481 l 360 481 l 360 583 l 450 583 q 572 631 522 583 q 622 750 622 679 q 578 863 622 819 q 454 907 533 907 q 325 853 375 907 q 275 713 275 800 l 275 -92 l 144 -92 l 144 606 l 64 606 l 64 710 l 144 710 q 238 931 147 849 q 460 1011 326 1011 q 667 943 585 1011 q 753 754 753 869 q 714 626 753 685 q 614 543 675 567 l 617 538 q 738 441 690 510 q 785 278 785 372 z "},"à":{"ha":813,"x_min":67,"x_max":775,"o":"m 542 325 q 304 306 364 325 q 221 262 244 288 q 197 186 197 236 q 343 90 197 90 q 481 144 421 90 q 542 297 542 201 l 542 325 m 547 114 q 299 -14 463 -14 q 86 86 138 -14 q 67 197 67 126 q 101 315 67 268 q 199 386 136 361 q 542 426 299 426 l 542 492 q 522 569 542 546 q 379 619 479 619 q 243 572 282 619 q 221 508 221 544 l 221 492 l 93 492 q 90 538 90 506 q 113 606 90 568 q 174 669 135 643 q 382 724 257 724 l 394 724 q 604 667 536 724 q 672 507 672 611 l 672 139 q 684 101 672 113 q 711 90 696 90 q 775 110 744 90 l 775 14 q 668 -14 729 -14 q 578 22 606 -14 q 547 114 550 58 m 339 799 l 179 996 l 181 1000 l 304 1000 l 436 799 l 339 799 z "},"á":{"ha":813,"x_min":67,"x_max":775,"o":"m 542 325 q 304 306 364 325 q 221 262 244 288 q 197 186 197 236 q 343 90 197 90 q 481 144 421 90 q 542 297 542 201 l 542 325 m 547 114 q 299 -14 463 -14 q 86 86 138 -14 q 67 197 67 126 q 101 315 67 268 q 199 386 136 361 q 542 426 299 426 l 542 492 q 522 569 542 546 q 379 619 479 619 q 243 572 282 619 q 221 508 221 544 l 221 492 l 93 492 q 90 538 90 506 q 113 606 90 568 q 174 669 135 643 q 382 724 257 724 l 394 724 q 604 667 536 724 q 672 507 672 611 l 672 139 q 684 101 672 113 q 711 90 696 90 q 775 110 744 90 l 775 14 q 668 -14 729 -14 q 578 22 606 -14 q 547 114 550 58 m 342 799 l 472 1000 l 597 1000 l 599 996 l 438 799 l 342 799 z "},"â":{"ha":813,"x_min":67,"x_max":775,"o":"m 542 325 q 304 306 364 325 q 221 262 244 288 q 197 186 197 236 q 343 90 197 90 q 481 144 421 90 q 542 297 542 201 l 542 325 m 547 114 q 299 -14 463 -14 q 86 86 138 -14 q 67 197 67 126 q 101 315 67 268 q 199 386 136 361 q 542 426 299 426 l 542 492 q 522 569 542 546 q 379 619 479 619 q 243 572 282 619 q 221 508 221 544 l 221 492 l 93 492 q 90 538 90 506 q 113 606 90 568 q 174 669 135 643 q 382 724 257 724 l 394 724 q 604 667 536 724 q 672 507 672 611 l 672 139 q 684 101 672 113 q 711 90 696 90 q 775 110 744 90 l 775 14 q 668 -14 729 -14 q 578 22 606 -14 q 547 114 550 58 m 332 1000 l 440 1000 l 628 799 l 517 799 l 386 922 l 254 799 l 143 799 l 332 1000 z "},"ã":{"ha":813,"x_min":67,"x_max":775,"o":"m 542 325 q 304 306 364 325 q 221 262 244 288 q 197 186 197 236 q 343 90 197 90 q 481 144 421 90 q 542 297 542 201 l 542 325 m 547 114 q 299 -14 463 -14 q 86 86 138 -14 q 67 197 67 126 q 101 315 67 268 q 199 386 136 361 q 542 426 299 426 l 542 492 q 522 569 542 546 q 379 619 479 619 q 243 572 282 619 q 221 508 221 544 l 221 492 l 93 492 q 90 538 90 506 q 113 606 90 568 q 174 669 135 643 q 382 724 257 724 l 394 724 q 604 667 536 724 q 672 507 672 611 l 672 139 q 684 101 672 113 q 711 90 696 90 q 775 110 744 90 l 775 14 q 668 -14 729 -14 q 578 22 606 -14 q 547 114 550 58 m 654 1000 q 617 903 654 943 q 499 856 575 856 q 402 872 457 856 q 319 895 347 888 q 264 903 292 903 q 188 856 201 903 l 118 856 q 206 986 118 946 q 272 1000 235 1000 q 338 992 308 1000 q 397 975 368 985 q 508 951 474 951 q 585 1000 569 951 l 654 1000 z "},"ä":{"ha":813,"x_min":67,"x_max":775,"o":"m 542 325 q 304 306 364 325 q 221 262 244 288 q 197 186 197 236 q 343 90 197 90 q 481 144 421 90 q 542 297 542 201 l 542 325 m 547 114 q 299 -14 463 -14 q 86 86 138 -14 q 67 197 67 126 q 101 315 67 268 q 199 386 136 361 q 542 426 299 426 l 542 492 q 522 569 542 546 q 379 619 479 619 q 243 572 282 619 q 221 508 221 544 l 221 492 l 93 492 q 90 538 90 506 q 113 606 90 568 q 174 669 135 643 q 382 724 257 724 l 394 724 q 604 667 536 724 q 672 507 672 611 l 672 139 q 684 101 672 113 q 711 90 696 90 q 775 110 744 90 l 775 14 q 668 -14 729 -14 q 578 22 606 -14 q 547 114 550 58 m 189 1000 l 314 1000 l 314 864 l 189 864 l 189 1000 m 450 1000 l 576 1000 l 576 864 l 450 864 l 450 1000 z "},"å":{"ha":813,"x_min":67,"x_max":775,"o":"m 542 325 q 304 306 364 325 q 221 262 244 288 q 197 186 197 236 q 343 90 197 90 q 481 144 421 90 q 542 297 542 201 l 542 325 m 547 114 q 299 -14 463 -14 q 86 86 138 -14 q 67 197 67 126 q 101 315 67 268 q 199 386 136 361 q 542 426 299 426 l 542 492 q 522 569 542 546 q 379 619 479 619 q 243 572 282 619 q 221 508 221 544 l 221 492 l 93 492 q 90 538 90 506 q 113 606 90 568 q 174 669 135 643 q 382 724 257 724 l 394 724 q 604 667 536 724 q 672 507 672 611 l 672 139 q 684 101 672 113 q 711 90 696 90 q 775 110 744 90 l 775 14 q 668 -14 729 -14 q 578 22 606 -14 q 547 114 550 58 m 525 911 q 484 813 525 854 q 385 772 443 772 q 286 811 328 772 q 244 911 244 851 q 285 1010 244 969 q 385 1051 326 1051 q 483 1011 440 1051 q 525 911 525 971 m 385 838 q 440 859 417 838 q 463 913 463 881 q 440 965 463 943 q 385 986 417 986 q 330 965 353 986 q 307 911 307 943 q 330 858 307 879 q 385 838 353 838 z "},"æ":{"ha":1243,"x_min":67,"x_max":1168,"o":"m 635 635 q 861 724 718 724 l 871 724 q 1086 643 1003 724 q 1168 424 1168 563 l 1168 325 l 672 325 q 782 108 676 161 q 874 90 818 90 q 963 111 928 90 q 1015 160 997 132 q 1044 264 1044 204 l 1168 264 q 1083 61 1168 138 q 871 -14 1001 -14 l 865 -14 q 701 26 772 -14 q 588 140 629 65 q 461 26 540 65 q 299 -14 382 -14 q 86 86 138 -14 q 67 197 67 126 q 101 315 67 268 q 199 386 136 361 q 542 426 299 426 l 542 492 q 522 569 542 546 q 379 619 479 619 q 243 572 282 619 q 221 508 221 544 l 221 492 l 93 492 q 90 538 90 506 q 113 606 90 568 q 174 669 135 643 q 382 724 257 724 l 394 724 q 635 635 569 724 m 542 325 q 304 306 364 325 q 221 262 244 288 q 197 186 197 236 q 343 90 197 90 q 481 144 421 90 q 542 297 542 201 l 542 325 m 864 619 q 736 572 786 619 q 675 426 686 524 l 1039 426 l 1039 443 q 988 575 1039 526 q 864 619 940 619 z "},"ç":{"ha":756,"x_min":71,"x_max":688,"o":"m 688 278 q 604 61 688 140 q 394 -14 524 -14 l 383 -14 q 160 78 243 -14 q 71 338 71 174 l 71 371 q 160 631 71 535 q 382 724 244 724 l 393 724 q 605 644 522 724 q 688 431 688 564 l 558 431 q 461 606 558 561 q 389 619 429 619 q 313 606 347 619 q 254 564 279 592 q 201 404 201 507 l 201 329 q 253 148 201 206 q 393 90 304 90 q 522 143 481 90 q 563 278 563 196 l 688 278 m 386 -24 q 540 -147 540 -24 q 483 -249 540 -215 q 394 -274 440 -274 q 249 -243 304 -274 l 261 -175 q 361 -203 317 -203 q 454 -140 454 -203 q 433 -98 454 -112 q 382 -83 411 -83 l 353 -83 l 353 -24 l 386 -24 z "},"è":{"ha":772,"x_min":71,"x_max":697,"o":"m 201 325 q 311 108 206 161 q 403 90 347 90 q 492 111 457 90 q 544 160 526 132 q 574 264 574 204 l 697 264 q 614 61 697 138 q 400 -14 531 -14 l 394 -14 q 161 78 249 -14 q 71 340 71 175 l 71 368 q 161 631 71 533 q 390 724 246 724 l 400 724 q 614 643 532 724 q 697 424 697 563 l 697 325 l 201 325 m 393 619 q 265 572 315 619 q 204 426 215 524 l 568 426 l 568 443 q 517 575 568 526 q 393 619 469 619 m 347 799 l 188 996 l 189 1000 l 313 1000 l 444 799 l 347 799 z "},"é":{"ha":772,"x_min":71,"x_max":697,"o":"m 201 325 q 311 108 206 161 q 403 90 347 90 q 492 111 457 90 q 544 160 526 132 q 574 264 574 204 l 697 264 q 614 61 697 138 q 400 -14 531 -14 l 394 -14 q 161 78 249 -14 q 71 340 71 175 l 71 368 q 161 631 71 533 q 390 724 246 724 l 400 724 q 614 643 532 724 q 697 424 697 563 l 697 325 l 201 325 m 393 619 q 265 572 315 619 q 204 426 215 524 l 568 426 l 568 443 q 517 575 568 526 q 393 619 469 619 m 342 799 l 472 1000 l 597 1000 l 599 996 l 438 799 l 342 799 z "},"ê":{"ha":772,"x_min":71,"x_max":697,"o":"m 201 325 q 311 108 206 161 q 403 90 347 90 q 492 111 457 90 q 544 160 526 132 q 574 264 574 204 l 697 264 q 614 61 697 138 q 400 -14 531 -14 l 394 -14 q 161 78 249 -14 q 71 340 71 175 l 71 368 q 161 631 71 533 q 390 724 246 724 l 400 724 q 614 643 532 724 q 697 424 697 563 l 697 325 l 201 325 m 393 619 q 265 572 315 619 q 204 426 215 524 l 568 426 l 568 443 q 517 575 568 526 q 393 619 469 619 m 339 1000 l 447 1000 l 635 799 l 524 799 l 393 922 l 261 799 l 150 799 l 339 1000 z "},"ë":{"ha":772,"x_min":71,"x_max":697,"o":"m 201 325 q 311 108 206 161 q 403 90 347 90 q 492 111 457 90 q 544 160 526 132 q 574 264 574 204 l 697 264 q 614 61 697 138 q 400 -14 531 -14 l 394 -14 q 161 78 249 -14 q 71 340 71 175 l 71 368 q 161 631 71 533 q 390 724 246 724 l 400 724 q 614 643 532 724 q 697 424 697 563 l 697 325 l 201 325 m 393 619 q 265 572 315 619 q 204 426 215 524 l 568 426 l 568 443 q 517 575 568 526 q 393 619 469 619 m 199 1000 l 324 1000 l 324 864 l 199 864 l 199 1000 m 460 1000 l 586 1000 l 586 864 l 460 864 l 460 1000 z "},"ì":{"ha":361,"x_min":-12,"x_max":246,"o":"m 115 0 l 115 710 l 246 710 l 246 0 l 115 0 m 147 799 l -12 996 l -11 1000 l 113 1000 l 244 799 l 147 799 z "},"í":{"ha":361,"x_min":115,"x_max":375,"o":"m 115 0 l 115 710 l 246 710 l 246 0 l 115 0 m 118 799 l 249 1000 l 374 1000 l 375 996 l 214 799 l 118 799 z "},"î":{"ha":361,"x_min":-61,"x_max":424,"o":"m 115 0 l 115 710 l 246 710 l 246 0 l 115 0 m 128 1000 l 236 1000 l 424 799 l 313 799 l 182 922 l 50 799 l -61 799 l 128 1000 z "},"ï":{"ha":361,"x_min":-12,"x_max":375,"o":"m 115 0 l 115 710 l 246 710 l 246 0 l 115 0 m -12 1000 l 113 1000 l 113 864 l -12 864 l -12 1000 m 249 1000 l 375 1000 l 375 864 l 249 864 l 249 1000 z "},"ð":{"ha":799,"x_min":72,"x_max":725,"o":"m 158 972 l 240 1013 q 372 935 303 981 l 503 996 q 525 972 514 983 q 547 949 536 961 l 426 893 q 700 533 633 725 q 725 381 725 461 l 725 329 q 629 69 725 161 q 399 -14 542 -14 q 168 69 256 -14 q 72 329 72 161 l 72 381 q 168 639 72 549 q 399 724 256 724 q 443 719 419 724 q 328 840 393 781 l 201 781 q 176 803 188 792 q 151 826 164 815 q 282 888 215 857 q 215 936 250 915 q 158 972 181 957 m 594 368 q 538 561 594 496 q 399 619 488 619 q 218 483 261 619 q 203 368 203 435 l 203 342 q 260 149 203 214 q 399 90 310 90 q 579 228 536 90 q 594 342 594 275 l 594 368 z "},"ñ":{"ha":824,"x_min":115,"x_max":715,"o":"m 228 606 q 465 724 318 724 q 696 589 639 724 q 715 478 715 542 l 715 0 l 585 0 l 585 454 q 543 582 585 544 q 435 619 501 619 q 303 563 360 619 q 246 422 246 506 l 246 0 l 115 0 l 115 710 l 210 710 l 228 606 m 690 1000 q 653 903 690 943 q 535 856 611 856 q 438 872 493 856 q 356 895 383 888 q 300 903 328 903 q 224 856 238 903 l 154 856 q 242 986 154 946 q 308 1000 271 1000 q 374 992 344 1000 q 433 975 404 985 q 544 951 510 951 q 621 1000 606 951 l 690 1000 z "},"ò":{"ha":797,"x_min":72,"x_max":725,"o":"m 594 368 q 538 561 594 496 q 399 619 488 619 q 218 483 261 619 q 203 368 203 435 l 203 342 q 260 149 203 214 q 399 90 310 90 q 579 228 536 90 q 594 342 594 275 l 594 368 m 725 329 q 629 69 725 161 q 399 -14 542 -14 q 168 69 256 -14 q 72 329 72 161 l 72 381 q 168 639 72 549 q 399 724 256 724 q 629 639 542 724 q 725 381 725 549 l 725 329 m 351 799 l 192 996 l 193 1000 l 317 1000 l 449 799 l 351 799 z "},"ó":{"ha":797,"x_min":72,"x_max":725,"o":"m 594 368 q 538 561 594 496 q 399 619 488 619 q 218 483 261 619 q 203 368 203 435 l 203 342 q 260 149 203 214 q 399 90 310 90 q 579 228 536 90 q 594 342 594 275 l 594 368 m 725 329 q 629 69 725 161 q 399 -14 542 -14 q 168 69 256 -14 q 72 329 72 161 l 72 381 q 168 639 72 549 q 399 724 256 724 q 629 639 542 724 q 725 381 725 549 l 725 329 m 354 799 l 485 1000 l 610 1000 l 611 996 l 450 799 l 354 799 z "},"ô":{"ha":797,"x_min":72,"x_max":725,"o":"m 594 368 q 538 561 594 496 q 399 619 488 619 q 218 483 261 619 q 203 368 203 435 l 203 342 q 260 149 203 214 q 399 90 310 90 q 579 228 536 90 q 594 342 594 275 l 594 368 m 725 329 q 629 69 725 161 q 399 -14 542 -14 q 168 69 256 -14 q 72 329 72 161 l 72 381 q 168 639 72 549 q 399 724 256 724 q 629 639 542 724 q 725 381 725 549 l 725 329 m 343 1000 l 451 1000 l 639 799 l 528 799 l 397 922 l 265 799 l 154 799 l 343 1000 z "},"õ":{"ha":797,"x_min":72,"x_max":725,"o":"m 594 368 q 538 561 594 496 q 399 619 488 619 q 218 483 261 619 q 203 368 203 435 l 203 342 q 260 149 203 214 q 399 90 310 90 q 579 228 536 90 q 594 342 594 275 l 594 368 m 725 329 q 629 69 725 161 q 399 -14 542 -14 q 168 69 256 -14 q 72 329 72 161 l 72 381 q 168 639 72 549 q 399 724 256 724 q 629 639 542 724 q 725 381 725 549 l 725 329 m 667 1000 q 631 903 667 943 q 511 856 588 856 q 415 872 469 856 q 332 895 360 888 q 276 903 304 903 q 200 856 214 903 l 131 856 q 217 986 131 946 q 285 1000 247 1000 q 351 992 321 1000 q 408 975 381 985 q 521 951 486 951 q 597 1000 582 951 l 667 1000 z "},"ö":{"ha":797,"x_min":72,"x_max":725,"o":"m 594 368 q 538 561 594 496 q 399 619 488 619 q 218 483 261 619 q 203 368 203 435 l 203 342 q 260 149 203 214 q 399 90 310 90 q 579 228 536 90 q 594 342 594 275 l 594 368 m 725 329 q 629 69 725 161 q 399 -14 542 -14 q 168 69 256 -14 q 72 329 72 161 l 72 381 q 168 639 72 549 q 399 724 256 724 q 629 639 542 724 q 725 381 725 549 l 725 329 m 204 1000 l 329 1000 l 329 864 l 204 864 l 204 1000 m 465 1000 l 592 1000 l 592 864 l 465 864 l 465 1000 z "},"÷":{"ha":854,"x_min":71,"x_max":782,"o":"m 71 296 l 71 413 l 782 413 l 782 296 l 71 296 m 369 196 l 485 196 l 485 71 l 369 71 l 369 196 m 369 639 l 485 639 l 485 513 l 369 513 l 369 639 z "},"ø":{"ha":797,"x_min":72,"x_max":725,"o":"m 621 647 q 725 381 725 556 l 725 329 q 629 69 725 161 q 399 -14 542 -14 q 232 24 304 -14 l 169 -76 l 88 -76 l 175 63 q 72 329 72 154 l 72 381 q 168 639 72 549 q 399 724 256 724 q 564 686 490 724 l 628 789 l 710 789 l 621 647 m 594 368 q 553 539 594 474 l 292 119 q 388 90 335 90 q 475 104 439 90 q 538 149 511 118 q 594 342 594 214 l 594 368 m 203 342 q 243 172 203 236 l 504 590 q 408 619 458 619 q 322 606 358 619 q 260 561 286 592 q 203 368 203 496 l 203 342 z "},"ù":{"ha":858,"x_min":108,"x_max":810,"o":"m 810 14 q 722 -14 768 -14 q 652 -4 675 -14 q 614 22 629 6 q 585 103 588 51 q 431 -4 531 24 q 353 -14 397 -14 q 261 1 307 -14 q 181 44 215 15 q 108 232 108 110 l 108 710 l 239 710 l 239 256 q 281 128 239 165 q 389 90 322 90 q 521 147 464 90 q 578 288 578 204 l 578 710 l 708 710 l 708 139 q 720 101 708 113 q 747 90 732 90 q 810 110 779 90 l 810 14 m 372 799 l 213 996 l 214 1000 l 338 1000 l 469 799 l 372 799 z "},"ú":{"ha":858,"x_min":108,"x_max":810,"o":"m 810 14 q 722 -14 768 -14 q 652 -4 675 -14 q 614 22 629 6 q 585 103 588 51 q 431 -4 531 24 q 353 -14 397 -14 q 261 1 307 -14 q 181 44 215 15 q 108 232 108 110 l 108 710 l 239 710 l 239 256 q 281 128 239 165 q 389 90 322 90 q 521 147 464 90 q 578 288 578 204 l 578 710 l 708 710 l 708 139 q 720 101 708 113 q 747 90 732 90 q 810 110 779 90 l 810 14 m 360 799 l 490 1000 l 615 1000 l 617 996 l 456 799 l 360 799 z "},"û":{"ha":858,"x_min":108,"x_max":810,"o":"m 810 14 q 722 -14 768 -14 q 652 -4 675 -14 q 614 22 629 6 q 585 103 588 51 q 431 -4 531 24 q 353 -14 397 -14 q 261 1 307 -14 q 181 44 215 15 q 108 232 108 110 l 108 710 l 239 710 l 239 256 q 281 128 239 165 q 389 90 322 90 q 521 147 464 90 q 578 288 578 204 l 578 710 l 708 710 l 708 139 q 720 101 708 113 q 747 90 732 90 q 810 110 779 90 l 810 14 m 351 1000 l 460 1000 l 647 799 l 536 799 l 406 922 l 274 799 l 163 799 l 351 1000 z "},"ü":{"ha":858,"x_min":108,"x_max":810,"o":"m 810 14 q 722 -14 768 -14 q 652 -4 675 -14 q 614 22 629 6 q 585 103 588 51 q 431 -4 531 24 q 353 -14 397 -14 q 261 1 307 -14 q 181 44 215 15 q 108 232 108 110 l 108 710 l 239 710 l 239 256 q 281 128 239 165 q 389 90 322 90 q 521 147 464 90 q 578 288 578 204 l 578 710 l 708 710 l 708 139 q 720 101 708 113 q 747 90 732 90 q 810 110 779 90 l 810 14 m 215 1000 l 340 1000 l 340 864 l 215 864 l 215 1000 m 476 1000 l 603 1000 l 603 864 l 476 864 l 476 1000 z "},"ý":{"ha":711,"x_min":17,"x_max":694,"o":"m 65 -132 q 135 -151 108 -151 q 179 -147 161 -151 q 217 -125 197 -142 q 293 7 264 -85 l 17 710 l 156 710 l 360 186 l 365 186 l 567 710 l 694 710 l 429 28 q 332 -164 371 -115 q 254 -235 293 -212 q 163 -258 215 -258 q 65 -239 108 -258 l 65 -132 m 308 799 l 439 1000 l 564 1000 l 565 996 l 404 799 l 308 799 z "},"þ":{"ha":810,"x_min":115,"x_max":738,"o":"m 246 90 l 246 -251 l 115 -251 l 115 1000 l 246 1000 l 246 632 q 450 724 321 724 q 653 636 576 724 q 738 354 738 538 l 738 339 q 657 75 738 171 q 450 -14 582 -14 q 246 90 318 -14 m 607 356 q 500 606 607 564 q 426 619 467 619 q 294 563 339 619 q 244 356 244 497 q 353 103 244 146 q 426 90 386 90 q 557 147 513 90 q 607 356 607 213 z "},"ÿ":{"ha":711,"x_min":17,"x_max":694,"o":"m 65 -132 q 135 -151 108 -151 q 179 -147 161 -151 q 217 -125 197 -142 q 293 7 264 -85 l 17 710 l 156 710 l 360 186 l 365 186 l 567 710 l 694 710 l 429 28 q 332 -164 371 -115 q 254 -235 293 -212 q 163 -258 215 -258 q 65 -239 108 -258 l 65 -132 m 167 1000 l 292 1000 l 292 864 l 167 864 l 167 1000 m 428 1000 l 554 1000 l 554 864 l 428 864 l 428 1000 z "},"ı":{"ha":361,"x_min":115,"x_max":246,"o":"m 115 0 l 115 710 l 246 710 l 246 0 l 115 0 z "},"Ł":{"ha":749,"x_min":46,"x_max":725,"o":"m 46 506 l 132 549 l 132 953 l 268 953 l 268 618 l 461 718 l 461 619 l 268 519 l 268 124 l 706 124 l 725 0 l 132 0 l 132 450 l 46 407 l 46 506 z "},"ł":{"ha":414,"x_min":28,"x_max":386,"o":"m 28 488 l 142 544 l 142 1000 l 272 1000 l 272 611 l 386 668 l 386 571 l 272 514 l 272 0 l 142 0 l 142 447 l 28 390 l 28 488 z "},"Œ":{"ha":1433,"x_min":85,"x_max":1372,"o":"m 738 81 q 479 -14 640 -14 q 200 92 308 -14 q 85 414 85 206 l 85 539 q 200 861 85 747 q 472 967 308 967 q 738 872 636 967 l 738 953 l 1363 953 l 1344 829 l 874 829 l 874 549 l 1300 549 l 1300 425 l 874 425 l 874 124 l 1353 124 l 1372 0 l 738 0 l 738 81 m 738 539 q 583 825 738 769 q 479 843 535 843 q 375 826 422 843 q 294 772 328 808 q 221 539 221 694 l 221 414 q 375 128 221 183 q 479 110 422 110 q 583 127 535 110 q 664 181 631 144 q 738 414 738 258 l 738 539 z "},"œ":{"ha":1296,"x_min":72,"x_max":1221,"o":"m 661 603 q 914 724 750 724 l 924 724 q 1139 643 1056 724 q 1221 424 1221 563 l 1221 325 l 725 325 q 835 108 729 161 q 926 90 871 90 q 1015 111 981 90 q 1068 160 1050 132 q 1097 264 1097 204 l 1221 264 q 1136 61 1221 138 q 924 -14 1054 -14 l 918 -14 q 661 107 751 -14 q 399 -14 575 -14 q 168 69 256 -14 q 72 329 72 161 l 72 381 q 168 639 72 549 q 399 724 256 724 q 661 603 575 724 m 594 368 q 538 561 594 496 q 399 619 488 619 q 218 483 261 619 q 203 368 203 435 l 203 342 q 260 149 203 214 q 399 90 310 90 q 579 228 536 90 q 594 342 594 275 l 594 368 m 917 619 q 789 572 839 619 q 728 426 739 524 l 1092 426 l 1092 443 q 1040 575 1092 526 q 917 619 993 619 z "},"Š":{"ha":871,"x_min":72,"x_max":797,"o":"m 210 299 l 208 269 q 270 149 208 188 q 436 110 332 110 q 601 148 540 110 q 661 253 661 186 q 619 351 661 319 q 515 401 578 382 q 378 438 451 421 q 241 485 304 454 q 136 567 178 515 q 94 696 94 618 q 122 822 94 774 q 194 903 149 871 q 436 967 285 967 q 674 904 583 967 q 772 700 772 836 l 772 683 l 636 683 l 636 704 q 581 808 636 772 q 439 843 525 843 q 247 774 293 843 q 231 717 231 750 q 272 632 231 661 q 377 583 314 603 q 514 547 440 564 q 651 499 588 529 q 756 419 714 469 q 797 285 797 368 q 769 144 797 200 q 693 53 742 88 q 435 -14 600 -14 q 101 139 183 -14 q 72 271 72 193 l 74 299 l 210 299 m 196 1243 l 307 1243 l 439 1119 l 569 1243 l 681 1243 l 493 1042 l 385 1042 l 196 1243 z "},"š":{"ha":742,"x_min":63,"x_max":674,"o":"m 63 192 l 64 222 l 193 222 l 193 208 q 304 97 193 121 q 392 90 338 90 q 494 116 446 90 q 543 189 543 142 q 509 258 543 236 q 424 291 475 279 q 313 313 372 303 q 203 344 254 322 q 117 403 151 365 q 83 513 83 442 q 161 667 83 611 q 374 724 239 724 l 386 724 q 585 667 510 724 q 657 531 657 611 l 656 506 l 526 506 l 526 518 q 369 619 526 619 q 219 557 243 619 q 214 526 214 540 q 248 468 214 488 q 333 438 282 449 q 444 416 385 426 q 554 383 503 406 q 674 214 674 333 q 586 36 674 93 q 372 -14 508 -14 l 351 -14 q 133 50 210 -14 q 63 192 63 108 m 126 1000 l 238 1000 l 369 876 l 500 1000 l 611 1000 l 424 799 l 315 799 l 126 1000 z "},"Ÿ":{"ha":794,"x_min":-7,"x_max":800,"o":"m 465 368 l 465 0 l 329 0 l 329 368 l -7 953 l 149 953 l 403 510 l 408 510 l 660 953 l 800 953 l 465 368 m 219 1176 l 344 1176 l 344 1040 l 219 1040 l 219 1176 m 481 1176 l 607 1176 l 607 1040 l 481 1040 l 481 1176 z "},"Ž":{"ha":828,"x_min":44,"x_max":771,"o":"m 44 0 l 44 53 l 551 829 l 78 829 l 78 953 l 760 953 l 760 900 l 251 124 l 771 124 l 771 0 l 44 0 m 174 1243 l 285 1243 l 417 1119 l 547 1243 l 658 1243 l 471 1042 l 363 1042 l 174 1243 z "},"ž":{"ha":643,"x_min":50,"x_max":588,"o":"m 50 0 l 50 53 l 396 606 l 71 606 l 71 710 l 576 710 l 576 658 l 229 104 l 588 104 l 588 0 l 50 0 m 79 1000 l 190 1000 l 322 876 l 453 1000 l 564 1000 l 376 799 l 268 799 l 79 1000 z "},"ƒ":{"ha":500,"x_min":-111,"x_max":519,"o":"m -100 -133 q -29 -153 -57 -153 q 13 -150 -1 -153 q 39 -139 26 -147 q 75 -64 68 -118 l 174 606 l 92 606 l 104 710 l 186 710 l 204 836 q 403 1011 231 1011 q 519 985 475 1011 l 507 889 q 424 908 464 908 q 371 897 386 908 q 332 819 339 872 l 315 710 l 482 710 l 469 606 l 303 606 l 204 -81 q 136 -215 190 -174 q 6 -256 82 -256 q -111 -229 -69 -256 l -100 -133 z "},"ˆ":{"ha":744,"x_min":128,"x_max":613,"o":"m 317 1000 l 425 1000 l 613 799 l 501 799 l 371 922 l 239 799 l 128 799 l 317 1000 z "},"ˇ":{"ha":744,"x_min":128,"x_max":613,"o":"m 128 1000 l 239 1000 l 371 876 l 501 1000 l 613 1000 l 425 799 l 317 799 l 128 1000 z "},"˘":{"ha":722,"x_min":94,"x_max":629,"o":"m 361 851 q 172 908 254 851 q 94 1024 94 963 l 188 1024 q 247 962 199 986 q 361 938 296 938 q 474 962 425 938 q 535 1024 524 986 l 629 1024 q 550 908 629 961 q 361 851 467 851 z "},"˙":{"ha":389,"x_min":103,"x_max":286,"o":"m 194 1022 q 260 995 233 1022 q 286 929 286 968 q 259 865 286 890 q 194 839 232 839 q 130 866 157 839 q 103 932 103 893 q 129 996 103 969 q 194 1022 156 1022 z "},"˚":{"ha":472,"x_min":96,"x_max":376,"o":"m 376 896 q 335 798 376 839 q 236 757 294 757 q 138 797 179 757 q 96 896 96 836 q 137 995 96 954 q 236 1036 178 1036 q 335 994 292 1036 q 376 896 376 956 m 236 822 q 291 844 268 822 q 314 897 314 865 q 291 949 314 928 q 236 971 268 971 q 181 949 204 971 q 158 896 158 928 q 181 843 158 864 q 236 822 204 822 z "},"˛":{"ha":472,"x_min":96,"x_max":354,"o":"m 336 -114 l 354 -165 q 231 -199 297 -199 q 108 -147 140 -199 q 96 -96 96 -128 q 121 -41 96 -65 q 171 0 146 -17 l 246 0 q 203 -34 225 -11 q 182 -81 182 -57 q 243 -133 182 -133 q 336 -114 274 -133 z "},"˜":{"ha":506,"x_min":-1,"x_max":535,"o":"m 535 996 q 497 899 535 939 q 379 851 456 851 q 283 867 338 851 q 200 891 228 883 q 144 899 172 899 q 68 851 82 899 l -1 851 q 86 982 -1 942 q 153 996 115 996 q 219 988 189 996 q 278 972 249 981 q 389 947 354 947 q 465 996 450 947 l 535 996 z "},"˝":{"ha":614,"x_min":71,"x_max":543,"o":"m 71 799 l 203 1000 l 326 1000 l 328 996 l 168 799 l 71 799 m 286 799 l 417 1000 l 542 1000 l 543 996 l 383 799 l 286 799 z "},"π":{"ha":872,"x_min":28,"x_max":839,"o":"m 28 669 q 251 710 85 710 l 839 710 l 826 607 l 706 607 l 706 211 q 726 0 706 65 l 603 0 q 579 199 579 36 l 579 607 l 338 607 q 272 121 326 358 q 238 0 256 44 l 113 0 q 201 458 172 165 q 211 607 210 542 q 46 590 96 607 l 28 669 z "},"–":{"ha":886,"x_min":96,"x_max":790,"o":"m 96 310 l 96 442 l 790 442 l 790 310 l 96 310 z "},"—":{"ha":1469,"x_min":100,"x_max":1364,"o":"m 100 310 l 100 440 l 1364 440 l 1364 310 l 100 310 z "},"‘":{"ha":311,"x_min":85,"x_max":225,"o":"m 206 953 l 168 781 l 225 781 l 225 626 l 85 626 l 85 744 l 133 953 l 206 953 z "},"’":{"ha":304,"x_min":85,"x_max":225,"o":"m 104 626 l 142 799 l 85 799 l 85 953 l 225 953 l 225 835 l 176 626 l 104 626 z "},"‚":{"ha":331,"x_min":96,"x_max":236,"o":"m 115 -172 l 153 0 l 96 0 l 96 154 l 236 154 l 236 36 l 188 -172 l 115 -172 z "},"“":{"ha":508,"x_min":85,"x_max":422,"o":"m 206 953 l 168 781 l 225 781 l 225 626 l 85 626 l 85 744 l 133 953 l 206 953 m 403 953 l 365 781 l 422 781 l 422 626 l 282 626 l 282 744 l 331 953 l 403 953 z "},"”":{"ha":501,"x_min":85,"x_max":422,"o":"m 301 626 l 339 799 l 282 799 l 282 953 l 422 953 l 422 835 l 374 626 l 301 626 m 104 626 l 142 799 l 85 799 l 85 953 l 225 953 l 225 835 l 176 626 l 104 626 z "},"„":{"ha":528,"x_min":96,"x_max":433,"o":"m 313 -172 l 350 0 l 293 0 l 293 154 l 433 154 l 433 36 l 385 -172 l 313 -172 m 115 -172 l 153 0 l 96 0 l 96 154 l 236 154 l 236 36 l 188 -172 l 115 -172 z "},"†":{"ha":708,"x_min":32,"x_max":676,"o":"m 392 604 l 419 -236 l 289 -236 l 317 604 l 32 579 l 32 708 l 317 685 l 293 953 l 415 953 l 392 685 l 676 708 l 676 579 l 392 604 z "},"‡":{"ha":740,"x_min":49,"x_max":692,"o":"m 407 603 q 431 356 415 529 q 419 231 425 293 q 407 106 414 168 q 692 129 611 121 l 692 0 l 407 25 q 431 -243 415 -51 l 310 -243 q 333 25 325 -51 l 49 0 l 49 129 q 191 117 119 122 q 333 106 263 111 q 321 231 326 168 q 310 356 315 293 q 333 603 325 529 q 49 579 268 596 l 49 708 l 333 683 q 310 953 326 756 l 431 953 q 407 683 414 756 l 692 708 l 692 579 q 558 590 625 585 q 407 603 490 596 z "},"•":{"ha":833,"x_min":208,"x_max":625,"o":"m 625 478 q 608 395 625 433 q 564 328 592 357 q 415 265 503 265 q 269 328 329 265 q 208 478 208 390 q 269 628 208 567 q 415 689 331 689 q 563 627 501 689 q 625 478 625 565 z "},"…":{"ha":1021,"x_min":96,"x_max":925,"o":"m 96 154 l 238 154 l 238 0 l 96 0 l 96 154 m 440 154 l 582 154 l 582 0 l 440 0 l 440 154 m 783 154 l 925 154 l 925 0 l 783 0 l 783 154 z "},"‰":{"ha":1435,"x_min":46,"x_max":1394,"o":"m 250 0 l 153 0 l 733 953 l 828 953 l 250 0 m 392 635 q 346 517 392 564 q 224 467 299 467 l 214 467 q 92 517 139 467 q 46 635 46 564 l 46 783 q 92 903 46 854 q 214 951 139 951 l 224 951 q 346 903 299 951 q 392 783 392 854 l 392 635 m 303 793 q 281 851 303 828 q 219 875 260 875 q 157 851 179 875 q 135 793 135 828 l 135 625 q 157 567 135 590 q 219 543 179 543 q 281 567 260 543 q 303 625 303 590 l 303 793 m 933 167 q 888 47 933 96 q 765 -1 840 -1 l 756 -1 q 633 47 681 -1 q 588 167 588 96 l 588 315 q 633 433 588 386 q 756 483 681 483 l 765 483 q 888 433 840 483 q 933 315 933 386 l 933 167 m 844 325 q 823 383 844 360 q 761 407 801 407 q 699 383 721 407 q 676 325 676 360 l 676 157 q 699 99 676 122 q 761 75 721 75 q 823 99 801 75 q 844 157 844 122 l 844 325 m 1394 167 q 1349 47 1394 96 q 1226 -1 1301 -1 l 1218 -1 q 1096 47 1143 -1 q 1050 167 1050 96 l 1050 315 q 1096 433 1050 386 q 1218 483 1143 483 l 1226 483 q 1349 433 1301 483 q 1394 315 1394 386 l 1394 167 m 1306 325 q 1284 383 1306 360 q 1224 407 1263 407 q 1161 383 1183 407 q 1139 325 1139 360 l 1139 157 q 1161 99 1139 122 q 1224 75 1183 75 q 1284 99 1263 75 q 1306 157 1306 122 l 1306 325 z "},"‹":{"ha":386,"x_min":68,"x_max":308,"o":"m 238 226 l 68 468 l 238 710 l 308 710 l 178 468 l 308 226 l 238 226 z "},"›":{"ha":386,"x_min":78,"x_max":318,"o":"m 78 226 l 208 468 l 78 710 l 149 710 l 318 468 l 149 226 l 78 226 z "},"⁄":{"ha":661,"x_min":3,"x_max":664,"o":"m 85 0 l 3 0 l 586 953 l 664 953 l 85 0 z "},"€":{"ha":781,"x_min":42,"x_max":729,"o":"m 729 3 q 597 -11 668 -11 q 457 12 525 -11 q 333 78 389 35 q 181 331 215 174 l 42 331 l 42 421 l 167 421 q 165 447 165 433 l 165 500 q 167 524 165 511 l 42 524 l 42 613 l 179 613 q 333 872 214 775 q 607 963 447 963 q 729 951 656 963 l 729 825 q 619 839 682 839 q 427 777 507 839 q 317 613 347 715 l 592 613 l 592 524 l 300 524 q 297 500 297 513 l 297 447 q 300 421 297 433 l 592 421 l 592 331 l 319 331 q 435 169 353 228 q 629 111 517 111 q 729 129 668 111 l 729 3 z "},"™":{"ha":1246,"x_min":64,"x_max":1146,"o":"m 328 869 l 328 400 l 238 400 l 238 869 l 64 869 l 64 953 l 500 953 l 500 869 l 328 869 m 1053 838 l 875 400 l 789 400 q 701 617 744 508 q 614 833 658 725 l 614 400 l 533 400 l 533 953 l 671 953 q 754 744 713 849 q 839 535 796 639 l 1010 953 l 1146 953 l 1146 400 l 1056 400 l 1056 619 q 1053 838 1056 728 z "},"Ω":{"ha":971,"x_min":63,"x_max":910,"o":"m 882 468 q 744 111 882 233 q 861 125 803 117 l 910 125 l 910 0 l 543 0 l 543 68 q 689 165 640 86 q 738 413 738 243 l 738 521 q 589 829 738 781 q 485 844 543 844 q 381 828 426 844 q 303 772 335 811 q 238 521 238 693 l 238 413 q 344 101 238 171 q 429 68 381 78 l 429 0 l 63 0 l 63 125 l 111 125 q 167 118 139 121 q 229 111 194 115 q 93 479 93 226 l 93 514 q 206 861 93 744 q 475 965 306 965 l 499 965 q 851 722 764 965 q 882 514 882 636 l 882 468 z "},"∂":{"ha":785,"x_min":39,"x_max":696,"o":"m 239 967 l 382 967 q 606 876 518 967 q 696 644 696 785 l 696 307 q 603 75 696 164 q 372 -14 513 -14 l 361 -14 q 131 72 222 -14 q 39 303 39 160 q 125 518 39 436 q 340 599 211 599 q 463 572 403 599 q 563 496 524 546 l 563 663 q 508 790 563 733 q 375 847 454 847 l 239 847 l 239 967 m 563 313 q 507 444 563 392 q 365 497 451 497 q 226 444 282 497 q 171 313 171 392 l 171 285 q 226 153 171 206 q 368 100 282 100 q 507 153 451 100 q 563 285 563 206 l 563 313 z "},"∆":{"ha":864,"x_min":35,"x_max":829,"o":"m 35 90 l 360 953 l 503 953 l 829 90 l 829 0 l 35 0 l 35 90 m 157 104 l 707 104 l 432 829 l 157 104 z "},"∏":{"ha":1040,"x_min":33,"x_max":1007,"o":"m 847 849 l 847 -136 l 706 -136 l 706 849 l 335 849 l 335 -136 l 193 -136 l 193 849 l 33 849 l 33 983 l 1007 983 l 1007 849 l 847 849 z "},"∑":{"ha":842,"x_min":38,"x_max":800,"o":"m 38 -136 l 38 -49 l 421 425 l 54 892 l 54 983 l 775 983 l 775 851 l 263 851 l 263 846 l 583 442 l 233 11 l 235 6 l 800 6 l 800 -136 l 38 -136 z "},"−":{"ha":854,"x_min":71,"x_max":782,"o":"m 71 433 l 782 433 l 782 307 l 71 307 l 71 433 z "},"√":{"ha":786,"x_min":-32,"x_max":799,"o":"m 338 -206 q 103 407 210 124 l -4 365 l -32 449 l 193 543 q 281 302 236 421 q 353 108 325 183 q 387 6 381 32 q 399 -42 393 -19 q 544 544 474 251 q 688 1129 615 836 l 799 1129 l 463 -206 l 338 -206 z "},"∞":{"ha":1061,"x_min":51,"x_max":1008,"o":"m 1008 392 q 990 295 1008 339 q 939 221 971 251 q 786 157 874 157 q 663 192 724 157 q 529 318 603 228 q 419 210 458 236 q 267 157 344 157 q 117 222 179 157 q 51 388 51 289 q 117 556 51 489 q 269 622 179 622 q 420 576 358 622 q 536 463 482 531 q 590 519 564 490 q 647 569 617 547 q 793 622 714 622 q 947 557 888 622 q 1008 392 1008 492 m 485 383 q 271 536 383 536 q 174 493 210 536 q 138 386 138 450 q 176 286 138 328 q 278 244 215 244 q 431 326 351 244 q 472 369 453 349 l 485 383 m 786 536 q 619 433 710 536 q 579 392 597 410 q 682 285 647 310 q 781 244 740 244 q 845 258 821 244 q 886 292 869 271 q 921 394 921 333 q 883 496 921 456 q 786 536 844 536 z "},"∫":{"ha":371,"x_min":36,"x_max":336,"o":"m 154 -197 q 117 886 117 632 q 192 1013 117 974 q 336 1042 250 1042 l 336 974 q 269 961 299 974 q 215 894 215 935 q 254 -192 254 25 q 179 -319 254 -281 q 36 -347 126 -347 l 36 -278 q 142 -236 106 -278 q 154 -197 154 -221 z "},"≈":{"ha":854,"x_min":35,"x_max":818,"o":"m 818 500 q 682 408 765 442 q 594 392 640 392 q 508 406 547 392 q 428 438 468 421 q 348 469 389 454 q 258 483 307 483 q 99 429 183 483 q 35 375 63 404 l 35 493 q 96 544 63 522 q 261 601 181 601 q 345 587 306 601 q 424 556 385 572 q 505 524 464 539 q 593 510 546 510 q 754 564 675 510 q 818 618 790 588 l 818 500 m 818 210 q 682 118 765 151 q 594 101 640 101 q 508 116 547 101 q 428 147 468 131 q 348 178 389 164 q 258 193 307 193 q 99 139 183 193 q 35 85 63 114 l 35 203 q 96 254 63 232 q 261 311 181 311 q 345 297 306 311 q 424 265 385 282 q 505 234 464 249 q 593 219 546 219 q 754 274 675 219 q 818 328 790 297 l 818 210 z "},"≠":{"ha":854,"x_min":78,"x_max":776,"o":"m 507 557 l 615 710 l 725 710 l 619 557 l 776 557 l 776 442 l 546 442 q 483 352 514 397 q 419 263 451 307 l 776 263 l 776 146 l 347 146 l 244 0 l 131 0 q 233 146 199 99 l 78 146 l 78 263 l 307 263 l 433 442 l 78 442 l 78 557 l 507 557 z "},"≤":{"ha":854,"x_min":68,"x_max":776,"o":"m 776 144 q 69 358 263 301 l 69 507 q 423 615 247 561 q 776 722 599 669 l 776 597 q 181 433 356 481 q 776 269 601 317 l 776 144 m 68 115 l 776 115 l 776 0 l 68 0 l 68 115 z "},"≥":{"ha":854,"x_min":78,"x_max":786,"o":"m 78 722 q 785 507 93 718 l 785 358 q 78 144 592 301 l 78 269 q 672 433 261 319 q 78 597 438 496 l 78 722 m 786 0 l 78 0 l 78 115 l 786 115 l 786 0 z "},"◊":{"ha":681,"x_min":40,"x_max":640,"o":"m 269 0 l 40 476 l 269 953 l 413 953 l 640 476 l 413 0 l 269 0 m 342 849 l 156 476 l 342 103 q 526 476 433 290 q 342 849 433 661 z "},"":{"ha":0,"x_min":0,"x_max":0,"o":""},"ﬁ":{"ha":835,"x_min":65,"x_max":725,"o":"m 143 806 q 308 1011 143 1011 q 439 985 386 1011 l 439 889 q 368 907 396 907 q 325 904 339 907 q 300 892 311 901 q 274 819 274 872 l 274 710 l 439 710 l 439 606 l 274 606 l 274 0 l 143 0 l 143 606 l 65 606 l 65 710 l 143 710 l 143 806 m 592 0 l 592 710 l 722 710 l 722 0 l 592 0 m 589 1000 l 725 1000 l 725 879 l 589 879 l 589 1000 z "},"ﬂ":{"ha":843,"x_min":65,"x_max":722,"o":"m 143 806 q 308 1011 143 1011 q 439 985 386 1011 l 439 889 q 368 907 396 907 q 325 904 339 907 q 300 892 311 901 q 274 819 274 872 l 274 710 l 439 710 l 439 606 l 274 606 l 274 0 l 143 0 l 143 606 l 65 606 l 65 710 l 143 710 l 143 806 m 592 0 l 592 1000 l 722 1000 l 722 0 l 592 0 z "}}}
